<mxfile host="Electron" modified="2023-09-25T22:48:57.196Z" agent="Mozilla/5.0 (Windows NT 10.0; Win64; x64) AppleWebKit/537.36 (KHTML, like Gecko) draw.io/21.7.5 Chrome/114.0.5735.289 Electron/25.8.1 Safari/537.36" etag="-b1QSTv0vJc7JUQUv6R2" version="21.7.5" type="device" pages="7">
  <diagram name="Goals" id="eu99bgsM3YVPVRxylXMa">
    <mxGraphModel dx="2074" dy="1214" grid="1" gridSize="10" guides="1" tooltips="1" connect="1" arrows="1" fold="1" page="1" pageScale="1" pageWidth="827" pageHeight="1169" math="0" shadow="0">
      <root>
        <mxCell id="0" />
        <mxCell id="1" parent="0" />
        <mxCell id="AOfEZR14KFHiWGgty_2b-2" value="&lt;h1&gt;Goals&lt;/h1&gt;&lt;p&gt;&lt;/p&gt;&lt;ul&gt;&lt;li&gt;Allow Viewing 2D Navgrid&lt;/li&gt;&lt;ul&gt;&lt;li&gt;Monochrome&lt;/li&gt;&lt;li&gt;Coloured nodes and lines&lt;/li&gt;&lt;li&gt;Captioned Nodes and Lines&lt;/li&gt;&lt;/ul&gt;&lt;li&gt;Allow Viewing 3D Navgrid (heightmap)&lt;/li&gt;&lt;li&gt;Render a shaded terrain Mesh (From arma Heightmap)&lt;/li&gt;&lt;li&gt;Export to PNG&lt;/li&gt;&lt;li&gt;Edit Navgrid&lt;/li&gt;&lt;ul&gt;&lt;li&gt;Edit node types&lt;/li&gt;&lt;li&gt;Edit node positions&lt;/li&gt;&lt;/ul&gt;&lt;/ul&gt;&lt;p&gt;&lt;/p&gt;&lt;p&gt;&lt;br&gt;&lt;/p&gt;" style="text;html=1;strokeColor=none;fillColor=none;spacing=5;spacingTop=-20;whiteSpace=wrap;overflow=hidden;rounded=0;" parent="1" vertex="1">
          <mxGeometry x="39" y="40" width="490" height="330" as="geometry" />
        </mxCell>
      </root>
    </mxGraphModel>
  </diagram>
  <diagram id="bLqoIQzr3adNFpV8X8fX" name="Parsing">
    <mxGraphModel dx="2074" dy="1214" grid="1" gridSize="10" guides="1" tooltips="1" connect="1" arrows="1" fold="1" page="1" pageScale="1" pageWidth="827" pageHeight="1169" math="0" shadow="0">
      <root>
        <mxCell id="0" />
        <mxCell id="1" parent="0" />
        <mxCell id="_lqWRvfMyF29g8KtkmrP-1" value="&lt;h1&gt;Parsing navGrid.sqf&lt;/h1&gt;&lt;p&gt;&lt;/p&gt;&lt;ul&gt;&lt;li&gt;Tokenise&lt;/li&gt;&lt;li&gt;Deserialies as Objects&lt;/li&gt;&lt;li&gt;Build Optimised Graph for processing&lt;/li&gt;&lt;li&gt;File Line Length should not be around 5 nodes.&lt;/li&gt;&lt;/ul&gt;&lt;p&gt;&lt;/p&gt;" style="text;html=1;strokeColor=none;fillColor=none;spacing=5;spacingTop=-20;whiteSpace=wrap;overflow=hidden;rounded=0;" parent="1" vertex="1">
          <mxGeometry x="40" y="40" width="320" height="160" as="geometry" />
        </mxCell>
        <mxCell id="_lqWRvfMyF29g8KtkmrP-2" value="&lt;div style=&quot;color: rgb(248, 248, 242); background-color: rgb(39, 40, 34); font-family: &amp;quot;Cascadia Code Light&amp;quot;, Consolas, &amp;quot;Courier New&amp;quot;, monospace, Consolas, &amp;quot;Courier New&amp;quot;, monospace; font-size: 14px; line-height: 19px;&quot;&gt;&lt;div style=&quot;text-align: left;&quot;&gt;&lt;div style=&quot;line-height: 19px;&quot;&gt;/*{&quot;systemTimeUCT_G&quot;:&quot;2021-06-24 09:22:16&quot;,&quot;worldName&quot;:&quot;Altis&quot;,&quot;StreetArtist_Config&quot;:{&quot;_flatMaxDrift&quot;:-1,&quot;_juncMergeDistance&quot;:-1,&quot;_humanEdited&quot;: true}}*/&lt;/div&gt;&lt;div style=&quot;line-height: 19px;&quot;&gt;&lt;br&gt;&lt;/div&gt;&lt;/div&gt;&lt;div style=&quot;text-align: left;&quot;&gt;navGrid = [&lt;/div&gt;&lt;div style=&quot;text-align: left;&quot;&gt;[[&lt;span style=&quot;text-align: center; color: rgb(174, 129, 255);&quot;&gt;3502.4&lt;/span&gt;&lt;span style=&quot;text-align: center;&quot;&gt;,&lt;/span&gt;&lt;span style=&quot;text-align: center; color: rgb(174, 129, 255);&quot;&gt;11862.5&lt;/span&gt;&lt;span style=&quot;text-align: center;&quot;&gt;,&lt;/span&gt;&lt;span style=&quot;text-align: center; color: rgb(174, 129, 255);&quot;&gt;0&lt;/span&gt;&lt;span style=&quot;text-align: center;&quot;&gt;],&lt;/span&gt;&lt;span style=&quot;text-align: center; color: rgb(174, 129, 255);&quot;&gt;0&lt;/span&gt;&lt;span style=&quot;text-align: center;&quot;&gt;,&lt;/span&gt;&lt;span style=&quot;text-align: center; color: rgb(174, 129, 255);&quot;&gt;false&lt;/span&gt;&lt;span style=&quot;text-align: center;&quot;&gt;,[[&lt;/span&gt;&lt;span style=&quot;text-align: center; color: rgb(174, 129, 255);&quot;&gt;4581&lt;/span&gt;&lt;span style=&quot;text-align: center;&quot;&gt;,&lt;/span&gt;&lt;span style=&quot;text-align: center; color: rgb(174, 129, 255);&quot;&gt;0&lt;/span&gt;&lt;span style=&quot;text-align: center;&quot;&gt;,&lt;/span&gt;&lt;span style=&quot;text-align: center; color: rgb(174, 129, 255);&quot;&gt;161.267&lt;/span&gt;&lt;span style=&quot;text-align: center;&quot;&gt;],[&lt;/span&gt;&lt;span style=&quot;text-align: center; color: rgb(174, 129, 255);&quot;&gt;3967&lt;/span&gt;&lt;span style=&quot;text-align: center;&quot;&gt;,&lt;/span&gt;&lt;span style=&quot;text-align: center; color: rgb(174, 129, 255);&quot;&gt;0&lt;/span&gt;&lt;span style=&quot;text-align: center;&quot;&gt;,&lt;/span&gt;&lt;span style=&quot;text-align: center; color: rgb(174, 129, 255);&quot;&gt;25.5829&lt;/span&gt;&lt;span style=&quot;text-align: center;&quot;&gt;]]]&lt;/span&gt;,...&lt;/div&gt;&lt;div style=&quot;text-align: left;&quot;&gt;...&lt;/div&gt;&lt;div style=&quot;text-align: left;&quot;&gt;]&lt;/div&gt;&lt;div&gt;&lt;/div&gt;&lt;/div&gt;" style="rounded=0;whiteSpace=wrap;html=1;" parent="1" vertex="1">
          <mxGeometry x="80" y="240" width="720" height="140" as="geometry" />
        </mxCell>
        <mxCell id="_lqWRvfMyF29g8KtkmrP-3" value="A3SANode" style="shape=table;startSize=30;container=1;collapsible=1;childLayout=tableLayout;fixedRows=1;rowLines=0;fontStyle=1;align=center;resizeLast=1;html=1;" parent="1" vertex="1">
          <mxGeometry x="320" y="640" width="200" height="150" as="geometry" />
        </mxCell>
        <mxCell id="_lqWRvfMyF29g8KtkmrP-4" value="" style="shape=tableRow;horizontal=0;startSize=0;swimlaneHead=0;swimlaneBody=0;fillColor=none;collapsible=0;dropTarget=0;points=[[0,0.5],[1,0.5]];portConstraint=eastwest;top=0;left=0;right=0;bottom=1;" parent="_lqWRvfMyF29g8KtkmrP-3" vertex="1">
          <mxGeometry y="30" width="200" height="30" as="geometry" />
        </mxCell>
        <mxCell id="_lqWRvfMyF29g8KtkmrP-5" value="PK" style="shape=partialRectangle;connectable=0;fillColor=none;top=0;left=0;bottom=0;right=0;fontStyle=1;overflow=hidden;whiteSpace=wrap;html=1;" parent="_lqWRvfMyF29g8KtkmrP-4" vertex="1">
          <mxGeometry width="30" height="30" as="geometry">
            <mxRectangle width="30" height="30" as="alternateBounds" />
          </mxGeometry>
        </mxCell>
        <mxCell id="_lqWRvfMyF29g8KtkmrP-6" value="Position Position" style="shape=partialRectangle;connectable=0;fillColor=none;top=0;left=0;bottom=0;right=0;align=left;spacingLeft=6;fontStyle=5;overflow=hidden;whiteSpace=wrap;html=1;" parent="_lqWRvfMyF29g8KtkmrP-4" vertex="1">
          <mxGeometry x="30" width="170" height="30" as="geometry">
            <mxRectangle width="170" height="30" as="alternateBounds" />
          </mxGeometry>
        </mxCell>
        <mxCell id="_lqWRvfMyF29g8KtkmrP-7" value="" style="shape=tableRow;horizontal=0;startSize=0;swimlaneHead=0;swimlaneBody=0;fillColor=none;collapsible=0;dropTarget=0;points=[[0,0.5],[1,0.5]];portConstraint=eastwest;top=0;left=0;right=0;bottom=0;" parent="_lqWRvfMyF29g8KtkmrP-3" vertex="1">
          <mxGeometry y="60" width="200" height="30" as="geometry" />
        </mxCell>
        <mxCell id="_lqWRvfMyF29g8KtkmrP-8" value="" style="shape=partialRectangle;connectable=0;fillColor=none;top=0;left=0;bottom=0;right=0;editable=1;overflow=hidden;whiteSpace=wrap;html=1;" parent="_lqWRvfMyF29g8KtkmrP-7" vertex="1">
          <mxGeometry width="30" height="30" as="geometry">
            <mxRectangle width="30" height="30" as="alternateBounds" />
          </mxGeometry>
        </mxCell>
        <mxCell id="_lqWRvfMyF29g8KtkmrP-9" value="int IslandId" style="shape=partialRectangle;connectable=0;fillColor=none;top=0;left=0;bottom=0;right=0;align=left;spacingLeft=6;overflow=hidden;whiteSpace=wrap;html=1;" parent="_lqWRvfMyF29g8KtkmrP-7" vertex="1">
          <mxGeometry x="30" width="170" height="30" as="geometry">
            <mxRectangle width="170" height="30" as="alternateBounds" />
          </mxGeometry>
        </mxCell>
        <mxCell id="_lqWRvfMyF29g8KtkmrP-10" value="" style="shape=tableRow;horizontal=0;startSize=0;swimlaneHead=0;swimlaneBody=0;fillColor=none;collapsible=0;dropTarget=0;points=[[0,0.5],[1,0.5]];portConstraint=eastwest;top=0;left=0;right=0;bottom=0;" parent="_lqWRvfMyF29g8KtkmrP-3" vertex="1">
          <mxGeometry y="90" width="200" height="30" as="geometry" />
        </mxCell>
        <mxCell id="_lqWRvfMyF29g8KtkmrP-11" value="" style="shape=partialRectangle;connectable=0;fillColor=none;top=0;left=0;bottom=0;right=0;editable=1;overflow=hidden;whiteSpace=wrap;html=1;" parent="_lqWRvfMyF29g8KtkmrP-10" vertex="1">
          <mxGeometry width="30" height="30" as="geometry">
            <mxRectangle width="30" height="30" as="alternateBounds" />
          </mxGeometry>
        </mxCell>
        <mxCell id="_lqWRvfMyF29g8KtkmrP-12" value="bool IsJunction" style="shape=partialRectangle;connectable=0;fillColor=none;top=0;left=0;bottom=0;right=0;align=left;spacingLeft=6;overflow=hidden;whiteSpace=wrap;html=1;" parent="_lqWRvfMyF29g8KtkmrP-10" vertex="1">
          <mxGeometry x="30" width="170" height="30" as="geometry">
            <mxRectangle width="170" height="30" as="alternateBounds" />
          </mxGeometry>
        </mxCell>
        <mxCell id="_lqWRvfMyF29g8KtkmrP-13" value="" style="shape=tableRow;horizontal=0;startSize=0;swimlaneHead=0;swimlaneBody=0;fillColor=none;collapsible=0;dropTarget=0;points=[[0,0.5],[1,0.5]];portConstraint=eastwest;top=0;left=0;right=0;bottom=0;" parent="_lqWRvfMyF29g8KtkmrP-3" vertex="1">
          <mxGeometry y="120" width="200" height="30" as="geometry" />
        </mxCell>
        <mxCell id="_lqWRvfMyF29g8KtkmrP-14" value="" style="shape=partialRectangle;connectable=0;fillColor=none;top=0;left=0;bottom=0;right=0;editable=1;overflow=hidden;whiteSpace=wrap;html=1;" parent="_lqWRvfMyF29g8KtkmrP-13" vertex="1">
          <mxGeometry width="30" height="30" as="geometry">
            <mxRectangle width="30" height="30" as="alternateBounds" />
          </mxGeometry>
        </mxCell>
        <mxCell id="_lqWRvfMyF29g8KtkmrP-15" value="List&amp;lt;Position&amp;gt; Connections" style="shape=partialRectangle;connectable=0;fillColor=none;top=0;left=0;bottom=0;right=0;align=left;spacingLeft=6;overflow=hidden;whiteSpace=wrap;html=1;" parent="_lqWRvfMyF29g8KtkmrP-13" vertex="1">
          <mxGeometry x="30" width="170" height="30" as="geometry">
            <mxRectangle width="170" height="30" as="alternateBounds" />
          </mxGeometry>
        </mxCell>
        <mxCell id="_lqWRvfMyF29g8KtkmrP-16" style="edgeStyle=orthogonalEdgeStyle;rounded=0;orthogonalLoop=1;jettySize=auto;html=1;" parent="1" source="_lqWRvfMyF29g8KtkmrP-17" target="_lqWRvfMyF29g8KtkmrP-4" edge="1">
          <mxGeometry relative="1" as="geometry" />
        </mxCell>
        <mxCell id="_lqWRvfMyF29g8KtkmrP-17" value="A3SAPositionATL" style="shape=table;startSize=30;container=1;collapsible=1;childLayout=tableLayout;fixedRows=1;rowLines=0;fontStyle=1;align=center;resizeLast=1;html=1;" parent="1" vertex="1">
          <mxGeometry x="600" y="600" width="120" height="120" as="geometry" />
        </mxCell>
        <mxCell id="_lqWRvfMyF29g8KtkmrP-18" value="" style="shape=tableRow;horizontal=0;startSize=0;swimlaneHead=0;swimlaneBody=0;fillColor=none;collapsible=0;dropTarget=0;points=[[0,0.5],[1,0.5]];portConstraint=eastwest;top=0;left=0;right=0;bottom=0;" parent="_lqWRvfMyF29g8KtkmrP-17" vertex="1">
          <mxGeometry y="30" width="120" height="30" as="geometry" />
        </mxCell>
        <mxCell id="_lqWRvfMyF29g8KtkmrP-19" value="" style="shape=partialRectangle;connectable=0;fillColor=none;top=0;left=0;bottom=0;right=0;editable=1;overflow=hidden;whiteSpace=wrap;html=1;" parent="_lqWRvfMyF29g8KtkmrP-18" vertex="1">
          <mxGeometry width="30" height="30" as="geometry">
            <mxRectangle width="30" height="30" as="alternateBounds" />
          </mxGeometry>
        </mxCell>
        <mxCell id="_lqWRvfMyF29g8KtkmrP-20" value="float X" style="shape=partialRectangle;connectable=0;fillColor=none;top=0;left=0;bottom=0;right=0;align=left;spacingLeft=6;overflow=hidden;whiteSpace=wrap;html=1;" parent="_lqWRvfMyF29g8KtkmrP-18" vertex="1">
          <mxGeometry x="30" width="90" height="30" as="geometry">
            <mxRectangle width="90" height="30" as="alternateBounds" />
          </mxGeometry>
        </mxCell>
        <mxCell id="_lqWRvfMyF29g8KtkmrP-21" value="" style="shape=tableRow;horizontal=0;startSize=0;swimlaneHead=0;swimlaneBody=0;fillColor=none;collapsible=0;dropTarget=0;points=[[0,0.5],[1,0.5]];portConstraint=eastwest;top=0;left=0;right=0;bottom=0;" parent="_lqWRvfMyF29g8KtkmrP-17" vertex="1">
          <mxGeometry y="60" width="120" height="30" as="geometry" />
        </mxCell>
        <mxCell id="_lqWRvfMyF29g8KtkmrP-22" value="" style="shape=partialRectangle;connectable=0;fillColor=none;top=0;left=0;bottom=0;right=0;editable=1;overflow=hidden;whiteSpace=wrap;html=1;" parent="_lqWRvfMyF29g8KtkmrP-21" vertex="1">
          <mxGeometry width="30" height="30" as="geometry">
            <mxRectangle width="30" height="30" as="alternateBounds" />
          </mxGeometry>
        </mxCell>
        <mxCell id="_lqWRvfMyF29g8KtkmrP-23" value="float Y" style="shape=partialRectangle;connectable=0;fillColor=none;top=0;left=0;bottom=0;right=0;align=left;spacingLeft=6;overflow=hidden;whiteSpace=wrap;html=1;" parent="_lqWRvfMyF29g8KtkmrP-21" vertex="1">
          <mxGeometry x="30" width="90" height="30" as="geometry">
            <mxRectangle width="90" height="30" as="alternateBounds" />
          </mxGeometry>
        </mxCell>
        <mxCell id="_lqWRvfMyF29g8KtkmrP-24" value="" style="shape=tableRow;horizontal=0;startSize=0;swimlaneHead=0;swimlaneBody=0;fillColor=none;collapsible=0;dropTarget=0;points=[[0,0.5],[1,0.5]];portConstraint=eastwest;top=0;left=0;right=0;bottom=0;" parent="_lqWRvfMyF29g8KtkmrP-17" vertex="1">
          <mxGeometry y="90" width="120" height="30" as="geometry" />
        </mxCell>
        <mxCell id="_lqWRvfMyF29g8KtkmrP-25" value="" style="shape=partialRectangle;connectable=0;fillColor=none;top=0;left=0;bottom=0;right=0;editable=1;overflow=hidden;whiteSpace=wrap;html=1;" parent="_lqWRvfMyF29g8KtkmrP-24" vertex="1">
          <mxGeometry width="30" height="30" as="geometry">
            <mxRectangle width="30" height="30" as="alternateBounds" />
          </mxGeometry>
        </mxCell>
        <mxCell id="_lqWRvfMyF29g8KtkmrP-26" value="float Z" style="shape=partialRectangle;connectable=0;fillColor=none;top=0;left=0;bottom=0;right=0;align=left;spacingLeft=6;overflow=hidden;whiteSpace=wrap;html=1;" parent="_lqWRvfMyF29g8KtkmrP-24" vertex="1">
          <mxGeometry x="30" width="90" height="30" as="geometry">
            <mxRectangle width="90" height="30" as="alternateBounds" />
          </mxGeometry>
        </mxCell>
        <mxCell id="_lqWRvfMyF29g8KtkmrP-27" value="A3SAConnection" style="shape=table;startSize=30;container=1;collapsible=1;childLayout=tableLayout;fixedRows=1;rowLines=0;fontStyle=1;align=center;resizeLast=1;html=1;" parent="1" vertex="1">
          <mxGeometry x="600" y="760" width="200" height="120" as="geometry" />
        </mxCell>
        <mxCell id="_lqWRvfMyF29g8KtkmrP-28" value="" style="shape=tableRow;horizontal=0;startSize=0;swimlaneHead=0;swimlaneBody=0;fillColor=none;collapsible=0;dropTarget=0;points=[[0,0.5],[1,0.5]];portConstraint=eastwest;top=0;left=0;right=0;bottom=0;" parent="_lqWRvfMyF29g8KtkmrP-27" vertex="1">
          <mxGeometry y="30" width="200" height="30" as="geometry" />
        </mxCell>
        <mxCell id="_lqWRvfMyF29g8KtkmrP-29" value="" style="shape=partialRectangle;connectable=0;fillColor=none;top=0;left=0;bottom=0;right=0;editable=1;overflow=hidden;whiteSpace=wrap;html=1;" parent="_lqWRvfMyF29g8KtkmrP-28" vertex="1">
          <mxGeometry width="30" height="30" as="geometry">
            <mxRectangle width="30" height="30" as="alternateBounds" />
          </mxGeometry>
        </mxCell>
        <mxCell id="_lqWRvfMyF29g8KtkmrP-30" value="int IndexOfConnectedNode" style="shape=partialRectangle;connectable=0;fillColor=none;top=0;left=0;bottom=0;right=0;align=left;spacingLeft=6;overflow=hidden;whiteSpace=wrap;html=1;" parent="_lqWRvfMyF29g8KtkmrP-28" vertex="1">
          <mxGeometry x="30" width="170" height="30" as="geometry">
            <mxRectangle width="170" height="30" as="alternateBounds" />
          </mxGeometry>
        </mxCell>
        <mxCell id="_lqWRvfMyF29g8KtkmrP-31" value="" style="shape=tableRow;horizontal=0;startSize=0;swimlaneHead=0;swimlaneBody=0;fillColor=none;collapsible=0;dropTarget=0;points=[[0,0.5],[1,0.5]];portConstraint=eastwest;top=0;left=0;right=0;bottom=0;" parent="_lqWRvfMyF29g8KtkmrP-27" vertex="1">
          <mxGeometry y="60" width="200" height="30" as="geometry" />
        </mxCell>
        <mxCell id="_lqWRvfMyF29g8KtkmrP-32" value="" style="shape=partialRectangle;connectable=0;fillColor=none;top=0;left=0;bottom=0;right=0;editable=1;overflow=hidden;whiteSpace=wrap;html=1;" parent="_lqWRvfMyF29g8KtkmrP-31" vertex="1">
          <mxGeometry width="30" height="30" as="geometry">
            <mxRectangle width="30" height="30" as="alternateBounds" />
          </mxGeometry>
        </mxCell>
        <mxCell id="_lqWRvfMyF29g8KtkmrP-33" value="int RoadType" style="shape=partialRectangle;connectable=0;fillColor=none;top=0;left=0;bottom=0;right=0;align=left;spacingLeft=6;overflow=hidden;whiteSpace=wrap;html=1;" parent="_lqWRvfMyF29g8KtkmrP-31" vertex="1">
          <mxGeometry x="30" width="170" height="30" as="geometry">
            <mxRectangle width="170" height="30" as="alternateBounds" />
          </mxGeometry>
        </mxCell>
        <mxCell id="_lqWRvfMyF29g8KtkmrP-34" value="" style="shape=tableRow;horizontal=0;startSize=0;swimlaneHead=0;swimlaneBody=0;fillColor=none;collapsible=0;dropTarget=0;points=[[0,0.5],[1,0.5]];portConstraint=eastwest;top=0;left=0;right=0;bottom=0;" parent="_lqWRvfMyF29g8KtkmrP-27" vertex="1">
          <mxGeometry y="90" width="200" height="30" as="geometry" />
        </mxCell>
        <mxCell id="_lqWRvfMyF29g8KtkmrP-35" value="" style="shape=partialRectangle;connectable=0;fillColor=none;top=0;left=0;bottom=0;right=0;editable=1;overflow=hidden;whiteSpace=wrap;html=1;" parent="_lqWRvfMyF29g8KtkmrP-34" vertex="1">
          <mxGeometry width="30" height="30" as="geometry">
            <mxRectangle width="30" height="30" as="alternateBounds" />
          </mxGeometry>
        </mxCell>
        <mxCell id="_lqWRvfMyF29g8KtkmrP-36" value="float TrueDrivingDistance" style="shape=partialRectangle;connectable=0;fillColor=none;top=0;left=0;bottom=0;right=0;align=left;spacingLeft=6;overflow=hidden;whiteSpace=wrap;html=1;" parent="_lqWRvfMyF29g8KtkmrP-34" vertex="1">
          <mxGeometry x="30" width="170" height="30" as="geometry">
            <mxRectangle width="170" height="30" as="alternateBounds" />
          </mxGeometry>
        </mxCell>
        <mxCell id="_lqWRvfMyF29g8KtkmrP-37" style="edgeStyle=orthogonalEdgeStyle;rounded=0;orthogonalLoop=1;jettySize=auto;html=1;" parent="1" source="_lqWRvfMyF29g8KtkmrP-28" target="_lqWRvfMyF29g8KtkmrP-13" edge="1">
          <mxGeometry relative="1" as="geometry" />
        </mxCell>
        <mxCell id="_lqWRvfMyF29g8KtkmrP-38" value="" style="edgeStyle=orthogonalEdgeStyle;rounded=0;orthogonalLoop=1;jettySize=auto;html=1;" parent="1" source="_lqWRvfMyF29g8KtkmrP-39" target="_lqWRvfMyF29g8KtkmrP-61" edge="1">
          <mxGeometry relative="1" as="geometry" />
        </mxCell>
        <mxCell id="_lqWRvfMyF29g8KtkmrP-39" value="A3SAMetaInformation" style="shape=table;startSize=30;container=1;collapsible=1;childLayout=tableLayout;fixedRows=1;rowLines=0;fontStyle=1;align=center;resizeLast=1;html=1;" parent="1" vertex="1">
          <mxGeometry x="280" y="440" width="280" height="120" as="geometry" />
        </mxCell>
        <mxCell id="_lqWRvfMyF29g8KtkmrP-40" value="" style="shape=tableRow;horizontal=0;startSize=0;swimlaneHead=0;swimlaneBody=0;fillColor=none;collapsible=0;dropTarget=0;points=[[0,0.5],[1,0.5]];portConstraint=eastwest;top=0;left=0;right=0;bottom=0;" parent="_lqWRvfMyF29g8KtkmrP-39" vertex="1">
          <mxGeometry y="30" width="280" height="30" as="geometry" />
        </mxCell>
        <mxCell id="_lqWRvfMyF29g8KtkmrP-41" value="" style="shape=partialRectangle;connectable=0;fillColor=none;top=0;left=0;bottom=0;right=0;editable=1;overflow=hidden;whiteSpace=wrap;html=1;" parent="_lqWRvfMyF29g8KtkmrP-40" vertex="1">
          <mxGeometry width="30" height="30" as="geometry">
            <mxRectangle width="30" height="30" as="alternateBounds" />
          </mxGeometry>
        </mxCell>
        <mxCell id="_lqWRvfMyF29g8KtkmrP-42" value="string&amp;nbsp;SystemTimeUCT_G" style="shape=partialRectangle;connectable=0;fillColor=none;top=0;left=0;bottom=0;right=0;align=left;spacingLeft=6;overflow=hidden;whiteSpace=wrap;html=1;" parent="_lqWRvfMyF29g8KtkmrP-40" vertex="1">
          <mxGeometry x="30" width="250" height="30" as="geometry">
            <mxRectangle width="250" height="30" as="alternateBounds" />
          </mxGeometry>
        </mxCell>
        <mxCell id="_lqWRvfMyF29g8KtkmrP-43" value="" style="shape=tableRow;horizontal=0;startSize=0;swimlaneHead=0;swimlaneBody=0;fillColor=none;collapsible=0;dropTarget=0;points=[[0,0.5],[1,0.5]];portConstraint=eastwest;top=0;left=0;right=0;bottom=0;" parent="_lqWRvfMyF29g8KtkmrP-39" vertex="1">
          <mxGeometry y="60" width="280" height="30" as="geometry" />
        </mxCell>
        <mxCell id="_lqWRvfMyF29g8KtkmrP-44" value="" style="shape=partialRectangle;connectable=0;fillColor=none;top=0;left=0;bottom=0;right=0;editable=1;overflow=hidden;whiteSpace=wrap;html=1;" parent="_lqWRvfMyF29g8KtkmrP-43" vertex="1">
          <mxGeometry width="30" height="30" as="geometry">
            <mxRectangle width="30" height="30" as="alternateBounds" />
          </mxGeometry>
        </mxCell>
        <mxCell id="_lqWRvfMyF29g8KtkmrP-45" value="string&amp;nbsp;WorldName" style="shape=partialRectangle;connectable=0;fillColor=none;top=0;left=0;bottom=0;right=0;align=left;spacingLeft=6;overflow=hidden;whiteSpace=wrap;html=1;" parent="_lqWRvfMyF29g8KtkmrP-43" vertex="1">
          <mxGeometry x="30" width="250" height="30" as="geometry">
            <mxRectangle width="250" height="30" as="alternateBounds" />
          </mxGeometry>
        </mxCell>
        <mxCell id="_lqWRvfMyF29g8KtkmrP-46" value="" style="shape=tableRow;horizontal=0;startSize=0;swimlaneHead=0;swimlaneBody=0;fillColor=none;collapsible=0;dropTarget=0;points=[[0,0.5],[1,0.5]];portConstraint=eastwest;top=0;left=0;right=0;bottom=0;" parent="_lqWRvfMyF29g8KtkmrP-39" vertex="1">
          <mxGeometry y="90" width="280" height="30" as="geometry" />
        </mxCell>
        <mxCell id="_lqWRvfMyF29g8KtkmrP-47" value="" style="shape=partialRectangle;connectable=0;fillColor=none;top=0;left=0;bottom=0;right=0;editable=1;overflow=hidden;whiteSpace=wrap;html=1;" parent="_lqWRvfMyF29g8KtkmrP-46" vertex="1">
          <mxGeometry width="30" height="30" as="geometry">
            <mxRectangle width="30" height="30" as="alternateBounds" />
          </mxGeometry>
        </mxCell>
        <mxCell id="_lqWRvfMyF29g8KtkmrP-48" value="StreetArtistConfig&amp;nbsp;StreetArtistConfig" style="shape=partialRectangle;connectable=0;fillColor=none;top=0;left=0;bottom=0;right=0;align=left;spacingLeft=6;overflow=hidden;whiteSpace=wrap;html=1;" parent="_lqWRvfMyF29g8KtkmrP-46" vertex="1">
          <mxGeometry x="30" width="250" height="30" as="geometry">
            <mxRectangle width="250" height="30" as="alternateBounds" />
          </mxGeometry>
        </mxCell>
        <mxCell id="_lqWRvfMyF29g8KtkmrP-49" style="edgeStyle=orthogonalEdgeStyle;rounded=0;orthogonalLoop=1;jettySize=auto;html=1;" parent="1" source="_lqWRvfMyF29g8KtkmrP-50" target="_lqWRvfMyF29g8KtkmrP-46" edge="1">
          <mxGeometry relative="1" as="geometry" />
        </mxCell>
        <mxCell id="_lqWRvfMyF29g8KtkmrP-50" value="A3SAStreetArtistConfig" style="shape=table;startSize=30;container=1;collapsible=1;childLayout=tableLayout;fixedRows=1;rowLines=0;fontStyle=1;align=center;resizeLast=1;html=1;" parent="1" vertex="1">
          <mxGeometry x="600" y="440" width="200" height="120" as="geometry" />
        </mxCell>
        <mxCell id="_lqWRvfMyF29g8KtkmrP-51" value="" style="shape=tableRow;horizontal=0;startSize=0;swimlaneHead=0;swimlaneBody=0;fillColor=none;collapsible=0;dropTarget=0;points=[[0,0.5],[1,0.5]];portConstraint=eastwest;top=0;left=0;right=0;bottom=0;" parent="_lqWRvfMyF29g8KtkmrP-50" vertex="1">
          <mxGeometry y="30" width="200" height="30" as="geometry" />
        </mxCell>
        <mxCell id="_lqWRvfMyF29g8KtkmrP-52" value="" style="shape=partialRectangle;connectable=0;fillColor=none;top=0;left=0;bottom=0;right=0;editable=1;overflow=hidden;whiteSpace=wrap;html=1;" parent="_lqWRvfMyF29g8KtkmrP-51" vertex="1">
          <mxGeometry width="30" height="30" as="geometry">
            <mxRectangle width="30" height="30" as="alternateBounds" />
          </mxGeometry>
        </mxCell>
        <mxCell id="_lqWRvfMyF29g8KtkmrP-53" value="float _flatMaxDrift" style="shape=partialRectangle;connectable=0;fillColor=none;top=0;left=0;bottom=0;right=0;align=left;spacingLeft=6;overflow=hidden;whiteSpace=wrap;html=1;" parent="_lqWRvfMyF29g8KtkmrP-51" vertex="1">
          <mxGeometry x="30" width="170" height="30" as="geometry">
            <mxRectangle width="170" height="30" as="alternateBounds" />
          </mxGeometry>
        </mxCell>
        <mxCell id="_lqWRvfMyF29g8KtkmrP-54" value="" style="shape=tableRow;horizontal=0;startSize=0;swimlaneHead=0;swimlaneBody=0;fillColor=none;collapsible=0;dropTarget=0;points=[[0,0.5],[1,0.5]];portConstraint=eastwest;top=0;left=0;right=0;bottom=0;" parent="_lqWRvfMyF29g8KtkmrP-50" vertex="1">
          <mxGeometry y="60" width="200" height="30" as="geometry" />
        </mxCell>
        <mxCell id="_lqWRvfMyF29g8KtkmrP-55" value="" style="shape=partialRectangle;connectable=0;fillColor=none;top=0;left=0;bottom=0;right=0;editable=1;overflow=hidden;whiteSpace=wrap;html=1;" parent="_lqWRvfMyF29g8KtkmrP-54" vertex="1">
          <mxGeometry width="30" height="30" as="geometry">
            <mxRectangle width="30" height="30" as="alternateBounds" />
          </mxGeometry>
        </mxCell>
        <mxCell id="_lqWRvfMyF29g8KtkmrP-56" value="float _juncMergeDistance" style="shape=partialRectangle;connectable=0;fillColor=none;top=0;left=0;bottom=0;right=0;align=left;spacingLeft=6;overflow=hidden;whiteSpace=wrap;html=1;" parent="_lqWRvfMyF29g8KtkmrP-54" vertex="1">
          <mxGeometry x="30" width="170" height="30" as="geometry">
            <mxRectangle width="170" height="30" as="alternateBounds" />
          </mxGeometry>
        </mxCell>
        <mxCell id="_lqWRvfMyF29g8KtkmrP-57" value="" style="shape=tableRow;horizontal=0;startSize=0;swimlaneHead=0;swimlaneBody=0;fillColor=none;collapsible=0;dropTarget=0;points=[[0,0.5],[1,0.5]];portConstraint=eastwest;top=0;left=0;right=0;bottom=0;" parent="_lqWRvfMyF29g8KtkmrP-50" vertex="1">
          <mxGeometry y="90" width="200" height="30" as="geometry" />
        </mxCell>
        <mxCell id="_lqWRvfMyF29g8KtkmrP-58" value="" style="shape=partialRectangle;connectable=0;fillColor=none;top=0;left=0;bottom=0;right=0;editable=1;overflow=hidden;whiteSpace=wrap;html=1;" parent="_lqWRvfMyF29g8KtkmrP-57" vertex="1">
          <mxGeometry width="30" height="30" as="geometry">
            <mxRectangle width="30" height="30" as="alternateBounds" />
          </mxGeometry>
        </mxCell>
        <mxCell id="_lqWRvfMyF29g8KtkmrP-59" value="bool _humanEdited" style="shape=partialRectangle;connectable=0;fillColor=none;top=0;left=0;bottom=0;right=0;align=left;spacingLeft=6;overflow=hidden;whiteSpace=wrap;html=1;" parent="_lqWRvfMyF29g8KtkmrP-57" vertex="1">
          <mxGeometry x="30" width="170" height="30" as="geometry">
            <mxRectangle width="170" height="30" as="alternateBounds" />
          </mxGeometry>
        </mxCell>
        <mxCell id="_lqWRvfMyF29g8KtkmrP-60" value="A3SANavGridRoot" style="shape=table;startSize=30;container=1;collapsible=1;childLayout=tableLayout;fixedRows=1;rowLines=0;fontStyle=1;align=center;resizeLast=1;html=1;" parent="1" vertex="1">
          <mxGeometry x="40" y="520" width="200" height="90" as="geometry" />
        </mxCell>
        <mxCell id="_lqWRvfMyF29g8KtkmrP-61" value="" style="shape=tableRow;horizontal=0;startSize=0;swimlaneHead=0;swimlaneBody=0;fillColor=none;collapsible=0;dropTarget=0;points=[[0,0.5],[1,0.5]];portConstraint=eastwest;top=0;left=0;right=0;bottom=0;" parent="_lqWRvfMyF29g8KtkmrP-60" vertex="1">
          <mxGeometry y="30" width="200" height="30" as="geometry" />
        </mxCell>
        <mxCell id="_lqWRvfMyF29g8KtkmrP-62" value="" style="shape=partialRectangle;connectable=0;fillColor=none;top=0;left=0;bottom=0;right=0;editable=1;overflow=hidden;whiteSpace=wrap;html=1;" parent="_lqWRvfMyF29g8KtkmrP-61" vertex="1">
          <mxGeometry width="30" height="30" as="geometry">
            <mxRectangle width="30" height="30" as="alternateBounds" />
          </mxGeometry>
        </mxCell>
        <mxCell id="_lqWRvfMyF29g8KtkmrP-63" value="MetaInformation Meta" style="shape=partialRectangle;connectable=0;fillColor=none;top=0;left=0;bottom=0;right=0;align=left;spacingLeft=6;overflow=hidden;whiteSpace=wrap;html=1;" parent="_lqWRvfMyF29g8KtkmrP-61" vertex="1">
          <mxGeometry x="30" width="170" height="30" as="geometry">
            <mxRectangle width="170" height="30" as="alternateBounds" />
          </mxGeometry>
        </mxCell>
        <mxCell id="_lqWRvfMyF29g8KtkmrP-64" value="" style="shape=tableRow;horizontal=0;startSize=0;swimlaneHead=0;swimlaneBody=0;fillColor=none;collapsible=0;dropTarget=0;points=[[0,0.5],[1,0.5]];portConstraint=eastwest;top=0;left=0;right=0;bottom=0;" parent="_lqWRvfMyF29g8KtkmrP-60" vertex="1">
          <mxGeometry y="60" width="200" height="30" as="geometry" />
        </mxCell>
        <mxCell id="_lqWRvfMyF29g8KtkmrP-65" value="" style="shape=partialRectangle;connectable=0;fillColor=none;top=0;left=0;bottom=0;right=0;editable=1;overflow=hidden;whiteSpace=wrap;html=1;" parent="_lqWRvfMyF29g8KtkmrP-64" vertex="1">
          <mxGeometry width="30" height="30" as="geometry">
            <mxRectangle width="30" height="30" as="alternateBounds" />
          </mxGeometry>
        </mxCell>
        <mxCell id="_lqWRvfMyF29g8KtkmrP-66" value="List&amp;lt;Node&amp;gt; Nodes" style="shape=partialRectangle;connectable=0;fillColor=none;top=0;left=0;bottom=0;right=0;align=left;spacingLeft=6;overflow=hidden;whiteSpace=wrap;html=1;" parent="_lqWRvfMyF29g8KtkmrP-64" vertex="1">
          <mxGeometry x="30" width="170" height="30" as="geometry">
            <mxRectangle width="170" height="30" as="alternateBounds" />
          </mxGeometry>
        </mxCell>
        <mxCell id="_lqWRvfMyF29g8KtkmrP-67" style="edgeStyle=orthogonalEdgeStyle;rounded=0;orthogonalLoop=1;jettySize=auto;html=1;" parent="1" source="_lqWRvfMyF29g8KtkmrP-4" target="_lqWRvfMyF29g8KtkmrP-64" edge="1">
          <mxGeometry relative="1" as="geometry" />
        </mxCell>
      </root>
    </mxGraphModel>
  </diagram>
  <diagram id="6mllkPOMwQzwnYsc-vIN" name="System Process">
    <mxGraphModel dx="2074" dy="1214" grid="1" gridSize="10" guides="1" tooltips="1" connect="1" arrows="1" fold="1" page="1" pageScale="1" pageWidth="827" pageHeight="1169" math="0" shadow="0">
      <root>
        <mxCell id="0" />
        <mxCell id="1" parent="0" />
        <mxCell id="D8aw_kxWJALHuoImoTRJ-101" style="edgeStyle=orthogonalEdgeStyle;rounded=0;orthogonalLoop=1;jettySize=auto;html=1;" parent="1" source="D8aw_kxWJALHuoImoTRJ-1" target="D8aw_kxWJALHuoImoTRJ-99" edge="1">
          <mxGeometry relative="1" as="geometry" />
        </mxCell>
        <mxCell id="D8aw_kxWJALHuoImoTRJ-1" value="Parse" style="rounded=0;whiteSpace=wrap;html=1;" parent="1" vertex="1">
          <mxGeometry x="440" y="40" width="120" height="80" as="geometry" />
        </mxCell>
        <mxCell id="D8aw_kxWJALHuoImoTRJ-100" style="edgeStyle=orthogonalEdgeStyle;rounded=0;orthogonalLoop=1;jettySize=auto;html=1;" parent="1" source="D8aw_kxWJALHuoImoTRJ-98" target="D8aw_kxWJALHuoImoTRJ-1" edge="1">
          <mxGeometry relative="1" as="geometry" />
        </mxCell>
        <mxCell id="D8aw_kxWJALHuoImoTRJ-98" value="navGrid.sqf" style="rounded=1;whiteSpace=wrap;html=1;" parent="1" vertex="1">
          <mxGeometry x="240" y="40" width="120" height="80" as="geometry" />
        </mxCell>
        <mxCell id="D8aw_kxWJALHuoImoTRJ-111" style="edgeStyle=orthogonalEdgeStyle;rounded=0;orthogonalLoop=1;jettySize=auto;html=1;" parent="1" source="D8aw_kxWJALHuoImoTRJ-99" target="D8aw_kxWJALHuoImoTRJ-105" edge="1">
          <mxGeometry relative="1" as="geometry" />
        </mxCell>
        <mxCell id="D8aw_kxWJALHuoImoTRJ-99" value="EntityFramework&lt;br&gt;Database&lt;br&gt;+ Relational&lt;br&gt;+ Spatial" style="rounded=1;whiteSpace=wrap;html=1;" parent="1" vertex="1">
          <mxGeometry x="600" y="200" width="120" height="80" as="geometry" />
        </mxCell>
        <mxCell id="D8aw_kxWJALHuoImoTRJ-106" style="edgeStyle=orthogonalEdgeStyle;rounded=0;orthogonalLoop=1;jettySize=auto;html=1;" parent="1" source="D8aw_kxWJALHuoImoTRJ-102" target="D8aw_kxWJALHuoImoTRJ-103" edge="1">
          <mxGeometry relative="1" as="geometry" />
        </mxCell>
        <mxCell id="D8aw_kxWJALHuoImoTRJ-102" value="Rendered State" style="rounded=1;whiteSpace=wrap;html=1;" parent="1" vertex="1">
          <mxGeometry x="200" y="440" width="120" height="80" as="geometry" />
        </mxCell>
        <mxCell id="D8aw_kxWJALHuoImoTRJ-107" style="edgeStyle=orthogonalEdgeStyle;rounded=0;orthogonalLoop=1;jettySize=auto;html=1;entryX=0;entryY=0.5;entryDx=0;entryDy=0;exitX=0.75;exitY=0;exitDx=0;exitDy=0;" parent="1" source="D8aw_kxWJALHuoImoTRJ-103" target="D8aw_kxWJALHuoImoTRJ-105" edge="1">
          <mxGeometry relative="1" as="geometry" />
        </mxCell>
        <mxCell id="D8aw_kxWJALHuoImoTRJ-108" style="edgeStyle=orthogonalEdgeStyle;rounded=0;orthogonalLoop=1;jettySize=auto;html=1;exitX=0.25;exitY=0;exitDx=0;exitDy=0;entryX=1;entryY=0.5;entryDx=0;entryDy=0;" parent="1" source="D8aw_kxWJALHuoImoTRJ-103" target="D8aw_kxWJALHuoImoTRJ-104" edge="1">
          <mxGeometry relative="1" as="geometry" />
        </mxCell>
        <mxCell id="D8aw_kxWJALHuoImoTRJ-103" value="Determine Visibile Regions" style="rounded=0;whiteSpace=wrap;html=1;" parent="1" vertex="1">
          <mxGeometry x="200" y="320" width="120" height="80" as="geometry" />
        </mxCell>
        <mxCell id="D8aw_kxWJALHuoImoTRJ-116" style="edgeStyle=orthogonalEdgeStyle;rounded=0;orthogonalLoop=1;jettySize=auto;html=1;exitX=0.5;exitY=1;exitDx=0;exitDy=0;" parent="1" source="D8aw_kxWJALHuoImoTRJ-104" target="D8aw_kxWJALHuoImoTRJ-115" edge="1">
          <mxGeometry relative="1" as="geometry" />
        </mxCell>
        <mxCell id="D8aw_kxWJALHuoImoTRJ-104" value="Determine Old Regions" style="rounded=0;whiteSpace=wrap;html=1;" parent="1" vertex="1">
          <mxGeometry x="40" y="200" width="120" height="80" as="geometry" />
        </mxCell>
        <mxCell id="D8aw_kxWJALHuoImoTRJ-113" style="edgeStyle=orthogonalEdgeStyle;rounded=0;orthogonalLoop=1;jettySize=auto;html=1;" parent="1" source="D8aw_kxWJALHuoImoTRJ-105" target="D8aw_kxWJALHuoImoTRJ-112" edge="1">
          <mxGeometry relative="1" as="geometry" />
        </mxCell>
        <mxCell id="D8aw_kxWJALHuoImoTRJ-105" value="Query New Regions" style="rounded=0;whiteSpace=wrap;html=1;" parent="1" vertex="1">
          <mxGeometry x="360" y="200" width="120" height="80" as="geometry" />
        </mxCell>
        <mxCell id="D8aw_kxWJALHuoImoTRJ-114" style="edgeStyle=orthogonalEdgeStyle;rounded=0;orthogonalLoop=1;jettySize=auto;html=1;entryX=1;entryY=0.5;entryDx=0;entryDy=0;exitX=0.5;exitY=1;exitDx=0;exitDy=0;" parent="1" source="D8aw_kxWJALHuoImoTRJ-112" target="D8aw_kxWJALHuoImoTRJ-102" edge="1">
          <mxGeometry relative="1" as="geometry">
            <mxPoint x="600" y="540" as="sourcePoint" />
          </mxGeometry>
        </mxCell>
        <mxCell id="D8aw_kxWJALHuoImoTRJ-112" value="Add To Render" style="rounded=0;whiteSpace=wrap;html=1;" parent="1" vertex="1">
          <mxGeometry x="360" y="320" width="120" height="80" as="geometry" />
        </mxCell>
        <mxCell id="D8aw_kxWJALHuoImoTRJ-117" style="edgeStyle=orthogonalEdgeStyle;rounded=0;orthogonalLoop=1;jettySize=auto;html=1;exitX=0.5;exitY=1;exitDx=0;exitDy=0;entryX=0;entryY=0.5;entryDx=0;entryDy=0;" parent="1" source="D8aw_kxWJALHuoImoTRJ-115" target="D8aw_kxWJALHuoImoTRJ-102" edge="1">
          <mxGeometry relative="1" as="geometry" />
        </mxCell>
        <mxCell id="D8aw_kxWJALHuoImoTRJ-115" value="Cull Non-visible Entities" style="rounded=0;whiteSpace=wrap;html=1;" parent="1" vertex="1">
          <mxGeometry x="40" y="320" width="120" height="80" as="geometry" />
        </mxCell>
        <mxCell id="D8aw_kxWJALHuoImoTRJ-121" style="edgeStyle=orthogonalEdgeStyle;rounded=0;orthogonalLoop=1;jettySize=auto;html=1;" parent="1" source="D8aw_kxWJALHuoImoTRJ-119" target="D8aw_kxWJALHuoImoTRJ-120" edge="1">
          <mxGeometry relative="1" as="geometry" />
        </mxCell>
        <mxCell id="D8aw_kxWJALHuoImoTRJ-119" value="Rendered State" style="rounded=1;whiteSpace=wrap;html=1;" parent="1" vertex="1">
          <mxGeometry x="200" y="640" width="120" height="80" as="geometry" />
        </mxCell>
        <mxCell id="D8aw_kxWJALHuoImoTRJ-122" style="edgeStyle=orthogonalEdgeStyle;rounded=0;orthogonalLoop=1;jettySize=auto;html=1;exitX=0;exitY=0.5;exitDx=0;exitDy=0;entryX=1;entryY=0.5;entryDx=0;entryDy=0;" parent="1" source="D8aw_kxWJALHuoImoTRJ-120" target="D8aw_kxWJALHuoImoTRJ-125" edge="1">
          <mxGeometry relative="1" as="geometry">
            <mxPoint x="110" y="890" as="targetPoint" />
          </mxGeometry>
        </mxCell>
        <mxCell id="D8aw_kxWJALHuoImoTRJ-124" style="edgeStyle=orthogonalEdgeStyle;rounded=0;orthogonalLoop=1;jettySize=auto;html=1;" parent="1" source="D8aw_kxWJALHuoImoTRJ-120" target="D8aw_kxWJALHuoImoTRJ-123" edge="1">
          <mxGeometry relative="1" as="geometry" />
        </mxCell>
        <mxCell id="D8aw_kxWJALHuoImoTRJ-120" value="Change Nodes" style="rounded=0;whiteSpace=wrap;html=1;" parent="1" vertex="1">
          <mxGeometry x="200" y="760" width="120" height="80" as="geometry" />
        </mxCell>
        <mxCell id="D8aw_kxWJALHuoImoTRJ-123" value="EntityFramework&lt;br&gt;Database&lt;br&gt;+ Relational&lt;br&gt;+ Spatial" style="rounded=1;whiteSpace=wrap;html=1;" parent="1" vertex="1">
          <mxGeometry x="400" y="760" width="120" height="80" as="geometry" />
        </mxCell>
        <mxCell id="D8aw_kxWJALHuoImoTRJ-126" style="edgeStyle=orthogonalEdgeStyle;rounded=0;orthogonalLoop=1;jettySize=auto;html=1;exitX=0.5;exitY=0;exitDx=0;exitDy=0;entryX=0;entryY=0.5;entryDx=0;entryDy=0;" parent="1" source="D8aw_kxWJALHuoImoTRJ-125" target="D8aw_kxWJALHuoImoTRJ-119" edge="1">
          <mxGeometry relative="1" as="geometry" />
        </mxCell>
        <mxCell id="D8aw_kxWJALHuoImoTRJ-125" value="Is Visible" style="rounded=0;whiteSpace=wrap;html=1;" parent="1" vertex="1">
          <mxGeometry x="40" y="760" width="120" height="80" as="geometry" />
        </mxCell>
      </root>
    </mxGraphModel>
  </diagram>
  <diagram id="ARF1uN7uReB6Nj7BUzCk" name="Data Schema">
    <mxGraphModel dx="1434" dy="854" grid="1" gridSize="10" guides="1" tooltips="1" connect="1" arrows="1" fold="1" page="1" pageScale="1" pageWidth="827" pageHeight="1169" math="0" shadow="0">
      <root>
        <mxCell id="0" />
        <mxCell id="1" parent="0" />
        <mxCell id="RexQlB-kswsBSzxwuEXo-27" value="Road" style="shape=table;startSize=30;container=1;collapsible=1;childLayout=tableLayout;fixedRows=1;rowLines=0;fontStyle=1;align=center;resizeLast=1;html=1;" parent="1" vertex="1">
          <mxGeometry x="120" y="240" width="240" height="180" as="geometry" />
        </mxCell>
        <mxCell id="RexQlB-kswsBSzxwuEXo-28" value="" style="shape=tableRow;horizontal=0;startSize=0;swimlaneHead=0;swimlaneBody=0;fillColor=none;collapsible=0;dropTarget=0;points=[[0,0.5],[1,0.5]];portConstraint=eastwest;top=0;left=0;right=0;bottom=1;" parent="RexQlB-kswsBSzxwuEXo-27" vertex="1">
          <mxGeometry y="30" width="240" height="30" as="geometry" />
        </mxCell>
        <mxCell id="RexQlB-kswsBSzxwuEXo-29" value="PK" style="shape=partialRectangle;connectable=0;fillColor=none;top=0;left=0;bottom=0;right=0;fontStyle=1;overflow=hidden;whiteSpace=wrap;html=1;" parent="RexQlB-kswsBSzxwuEXo-28" vertex="1">
          <mxGeometry width="40" height="30" as="geometry">
            <mxRectangle width="40" height="30" as="alternateBounds" />
          </mxGeometry>
        </mxCell>
        <mxCell id="RexQlB-kswsBSzxwuEXo-30" value="RoadId RoadId" style="shape=partialRectangle;connectable=0;fillColor=none;top=0;left=0;bottom=0;right=0;align=left;spacingLeft=6;fontStyle=5;overflow=hidden;whiteSpace=wrap;html=1;" parent="RexQlB-kswsBSzxwuEXo-28" vertex="1">
          <mxGeometry x="40" width="200" height="30" as="geometry">
            <mxRectangle width="200" height="30" as="alternateBounds" />
          </mxGeometry>
        </mxCell>
        <mxCell id="oUhA9xJmE4I4MFQZkkZ_-7" style="shape=tableRow;horizontal=0;startSize=0;swimlaneHead=0;swimlaneBody=0;fillColor=none;collapsible=0;dropTarget=0;points=[[0,0.5],[1,0.5]];portConstraint=eastwest;top=0;left=0;right=0;bottom=0;" parent="RexQlB-kswsBSzxwuEXo-27" vertex="1">
          <mxGeometry y="60" width="240" height="30" as="geometry" />
        </mxCell>
        <mxCell id="oUhA9xJmE4I4MFQZkkZ_-8" value="FK" style="shape=partialRectangle;connectable=0;fillColor=none;top=0;left=0;bottom=0;right=0;editable=1;overflow=hidden;whiteSpace=wrap;html=1;" parent="oUhA9xJmE4I4MFQZkkZ_-7" vertex="1">
          <mxGeometry width="40" height="30" as="geometry">
            <mxRectangle width="40" height="30" as="alternateBounds" />
          </mxGeometry>
        </mxCell>
        <mxCell id="oUhA9xJmE4I4MFQZkkZ_-9" value="ProjectId ProjectId" style="shape=partialRectangle;connectable=0;fillColor=none;top=0;left=0;bottom=0;right=0;align=left;spacingLeft=6;overflow=hidden;whiteSpace=wrap;html=1;" parent="oUhA9xJmE4I4MFQZkkZ_-7" vertex="1">
          <mxGeometry x="40" width="200" height="30" as="geometry">
            <mxRectangle width="200" height="30" as="alternateBounds" />
          </mxGeometry>
        </mxCell>
        <mxCell id="RexQlB-kswsBSzxwuEXo-37" value="" style="shape=tableRow;horizontal=0;startSize=0;swimlaneHead=0;swimlaneBody=0;fillColor=none;collapsible=0;dropTarget=0;points=[[0,0.5],[1,0.5]];portConstraint=eastwest;top=0;left=0;right=0;bottom=0;" parent="RexQlB-kswsBSzxwuEXo-27" vertex="1">
          <mxGeometry y="90" width="240" height="30" as="geometry" />
        </mxCell>
        <mxCell id="RexQlB-kswsBSzxwuEXo-38" value="IX" style="shape=partialRectangle;connectable=0;fillColor=none;top=0;left=0;bottom=0;right=0;editable=1;overflow=hidden;whiteSpace=wrap;html=1;" parent="RexQlB-kswsBSzxwuEXo-37" vertex="1">
          <mxGeometry width="40" height="30" as="geometry">
            <mxRectangle width="40" height="30" as="alternateBounds" />
          </mxGeometry>
        </mxCell>
        <mxCell id="RexQlB-kswsBSzxwuEXo-39" value="PositionATL PositionATL" style="shape=partialRectangle;connectable=0;fillColor=none;top=0;left=0;bottom=0;right=0;align=left;spacingLeft=6;overflow=hidden;whiteSpace=wrap;html=1;" parent="RexQlB-kswsBSzxwuEXo-37" vertex="1">
          <mxGeometry x="40" width="200" height="30" as="geometry">
            <mxRectangle width="200" height="30" as="alternateBounds" />
          </mxGeometry>
        </mxCell>
        <mxCell id="RexQlB-kswsBSzxwuEXo-34" value="" style="shape=tableRow;horizontal=0;startSize=0;swimlaneHead=0;swimlaneBody=0;fillColor=none;collapsible=0;dropTarget=0;points=[[0,0.5],[1,0.5]];portConstraint=eastwest;top=0;left=0;right=0;bottom=0;" parent="RexQlB-kswsBSzxwuEXo-27" vertex="1">
          <mxGeometry y="120" width="240" height="30" as="geometry" />
        </mxCell>
        <mxCell id="RexQlB-kswsBSzxwuEXo-35" value="IX" style="shape=partialRectangle;connectable=0;fillColor=none;top=0;left=0;bottom=0;right=0;editable=1;overflow=hidden;whiteSpace=wrap;html=1;" parent="RexQlB-kswsBSzxwuEXo-34" vertex="1">
          <mxGeometry width="40" height="30" as="geometry">
            <mxRectangle width="40" height="30" as="alternateBounds" />
          </mxGeometry>
        </mxCell>
        <mxCell id="RexQlB-kswsBSzxwuEXo-36" value="IslandId IslandId" style="shape=partialRectangle;connectable=0;fillColor=none;top=0;left=0;bottom=0;right=0;align=left;spacingLeft=6;overflow=hidden;whiteSpace=wrap;html=1;" parent="RexQlB-kswsBSzxwuEXo-34" vertex="1">
          <mxGeometry x="40" width="200" height="30" as="geometry">
            <mxRectangle width="200" height="30" as="alternateBounds" />
          </mxGeometry>
        </mxCell>
        <mxCell id="RexQlB-kswsBSzxwuEXo-31" value="" style="shape=tableRow;horizontal=0;startSize=0;swimlaneHead=0;swimlaneBody=0;fillColor=none;collapsible=0;dropTarget=0;points=[[0,0.5],[1,0.5]];portConstraint=eastwest;top=0;left=0;right=0;bottom=0;" parent="RexQlB-kswsBSzxwuEXo-27" vertex="1">
          <mxGeometry y="150" width="240" height="30" as="geometry" />
        </mxCell>
        <mxCell id="RexQlB-kswsBSzxwuEXo-32" value="" style="shape=partialRectangle;connectable=0;fillColor=none;top=0;left=0;bottom=0;right=0;editable=1;overflow=hidden;whiteSpace=wrap;html=1;" parent="RexQlB-kswsBSzxwuEXo-31" vertex="1">
          <mxGeometry width="40" height="30" as="geometry">
            <mxRectangle width="40" height="30" as="alternateBounds" />
          </mxGeometry>
        </mxCell>
        <mxCell id="RexQlB-kswsBSzxwuEXo-33" value="RoadType WorsedRoadType" style="shape=partialRectangle;connectable=0;fillColor=none;top=0;left=0;bottom=0;right=0;align=left;spacingLeft=6;overflow=hidden;whiteSpace=wrap;html=1;" parent="RexQlB-kswsBSzxwuEXo-31" vertex="1">
          <mxGeometry x="40" width="200" height="30" as="geometry">
            <mxRectangle width="200" height="30" as="alternateBounds" />
          </mxGeometry>
        </mxCell>
        <mxCell id="RexQlB-kswsBSzxwuEXo-40" value="RoadConnection" style="shape=table;startSize=30;container=1;collapsible=1;childLayout=tableLayout;fixedRows=1;rowLines=0;fontStyle=1;align=center;resizeLast=1;html=1;whiteSpace=wrap;" parent="1" vertex="1">
          <mxGeometry x="480" y="240" width="240" height="120" as="geometry" />
        </mxCell>
        <mxCell id="RexQlB-kswsBSzxwuEXo-41" value="" style="shape=tableRow;horizontal=0;startSize=0;swimlaneHead=0;swimlaneBody=0;fillColor=none;collapsible=0;dropTarget=0;points=[[0,0.5],[1,0.5]];portConstraint=eastwest;top=0;left=0;right=0;bottom=0;html=1;" parent="RexQlB-kswsBSzxwuEXo-40" vertex="1">
          <mxGeometry y="30" width="240" height="30" as="geometry" />
        </mxCell>
        <mxCell id="RexQlB-kswsBSzxwuEXo-42" value="CK,FK" style="shape=partialRectangle;connectable=0;fillColor=none;top=0;left=0;bottom=0;right=0;fontStyle=1;overflow=hidden;html=1;whiteSpace=wrap;" parent="RexQlB-kswsBSzxwuEXo-41" vertex="1">
          <mxGeometry width="40" height="30" as="geometry">
            <mxRectangle width="40" height="30" as="alternateBounds" />
          </mxGeometry>
        </mxCell>
        <mxCell id="RexQlB-kswsBSzxwuEXo-43" value="RoadId LeftRoadId" style="shape=partialRectangle;connectable=0;fillColor=none;top=0;left=0;bottom=0;right=0;align=left;spacingLeft=6;fontStyle=5;overflow=hidden;html=1;whiteSpace=wrap;" parent="RexQlB-kswsBSzxwuEXo-41" vertex="1">
          <mxGeometry x="40" width="200" height="30" as="geometry">
            <mxRectangle width="200" height="30" as="alternateBounds" />
          </mxGeometry>
        </mxCell>
        <mxCell id="RexQlB-kswsBSzxwuEXo-44" value="" style="shape=tableRow;horizontal=0;startSize=0;swimlaneHead=0;swimlaneBody=0;fillColor=none;collapsible=0;dropTarget=0;points=[[0,0.5],[1,0.5]];portConstraint=eastwest;top=0;left=0;right=0;bottom=1;html=1;" parent="RexQlB-kswsBSzxwuEXo-40" vertex="1">
          <mxGeometry y="60" width="240" height="30" as="geometry" />
        </mxCell>
        <mxCell id="RexQlB-kswsBSzxwuEXo-45" value="CK,FK" style="shape=partialRectangle;connectable=0;fillColor=none;top=0;left=0;bottom=0;right=0;fontStyle=1;overflow=hidden;html=1;whiteSpace=wrap;" parent="RexQlB-kswsBSzxwuEXo-44" vertex="1">
          <mxGeometry width="40" height="30" as="geometry">
            <mxRectangle width="40" height="30" as="alternateBounds" />
          </mxGeometry>
        </mxCell>
        <mxCell id="RexQlB-kswsBSzxwuEXo-46" value="Roadd RightRoadId" style="shape=partialRectangle;connectable=0;fillColor=none;top=0;left=0;bottom=0;right=0;align=left;spacingLeft=6;fontStyle=5;overflow=hidden;html=1;whiteSpace=wrap;" parent="RexQlB-kswsBSzxwuEXo-44" vertex="1">
          <mxGeometry x="40" width="200" height="30" as="geometry">
            <mxRectangle width="200" height="30" as="alternateBounds" />
          </mxGeometry>
        </mxCell>
        <mxCell id="RexQlB-kswsBSzxwuEXo-50" value="" style="shape=tableRow;horizontal=0;startSize=0;swimlaneHead=0;swimlaneBody=0;fillColor=none;collapsible=0;dropTarget=0;points=[[0,0.5],[1,0.5]];portConstraint=eastwest;top=0;left=0;right=0;bottom=0;html=1;" parent="RexQlB-kswsBSzxwuEXo-40" vertex="1">
          <mxGeometry y="90" width="240" height="30" as="geometry" />
        </mxCell>
        <mxCell id="RexQlB-kswsBSzxwuEXo-51" value="" style="shape=partialRectangle;connectable=0;fillColor=none;top=0;left=0;bottom=0;right=0;editable=1;overflow=hidden;html=1;whiteSpace=wrap;" parent="RexQlB-kswsBSzxwuEXo-50" vertex="1">
          <mxGeometry width="40" height="30" as="geometry">
            <mxRectangle width="40" height="30" as="alternateBounds" />
          </mxGeometry>
        </mxCell>
        <mxCell id="RexQlB-kswsBSzxwuEXo-52" value="RoadType RoadType" style="shape=partialRectangle;connectable=0;fillColor=none;top=0;left=0;bottom=0;right=0;align=left;spacingLeft=6;overflow=hidden;html=1;whiteSpace=wrap;" parent="RexQlB-kswsBSzxwuEXo-50" vertex="1">
          <mxGeometry x="40" width="200" height="30" as="geometry">
            <mxRectangle width="200" height="30" as="alternateBounds" />
          </mxGeometry>
        </mxCell>
        <mxCell id="RexQlB-kswsBSzxwuEXo-54" value="" style="edgeStyle=entityRelationEdgeStyle;fontSize=12;html=1;endArrow=ERzeroToMany;startArrow=ERmandOne;jumpStyle=arc;jumpSize=10;rounded=1;" parent="1" source="RexQlB-kswsBSzxwuEXo-28" target="RexQlB-kswsBSzxwuEXo-41" edge="1">
          <mxGeometry width="100" height="100" relative="1" as="geometry">
            <mxPoint x="250" y="240" as="sourcePoint" />
            <mxPoint x="350" y="140" as="targetPoint" />
          </mxGeometry>
        </mxCell>
        <mxCell id="RexQlB-kswsBSzxwuEXo-55" value="" style="edgeStyle=entityRelationEdgeStyle;fontSize=12;html=1;endArrow=ERzeroToMany;startArrow=ERmandOne;jumpStyle=arc;jumpSize=10;rounded=1;" parent="1" source="RexQlB-kswsBSzxwuEXo-28" target="RexQlB-kswsBSzxwuEXo-44" edge="1">
          <mxGeometry width="100" height="100" relative="1" as="geometry">
            <mxPoint x="350" y="215" as="sourcePoint" />
            <mxPoint x="570" y="215" as="targetPoint" />
          </mxGeometry>
        </mxCell>
        <mxCell id="oUhA9xJmE4I4MFQZkkZ_-10" value="&lt;h1&gt;Street Artist ERD&lt;br&gt;Legend&lt;/h1&gt;&lt;p&gt;PK - Primary Key&lt;/p&gt;&lt;p&gt;IX - Indexed Column&lt;/p&gt;&lt;p&gt;FK - Foreign Key&lt;/p&gt;&lt;p&gt;CK - Composite Key&lt;/p&gt;" style="text;html=1;strokeColor=none;fillColor=none;spacing=5;spacingTop=-20;whiteSpace=wrap;overflow=hidden;rounded=0;" parent="1" vertex="1">
          <mxGeometry x="120" y="40" width="240" height="190" as="geometry" />
        </mxCell>
        <mxCell id="oUhA9xJmE4I4MFQZkkZ_-11" value="World" style="shape=table;startSize=30;container=1;collapsible=1;childLayout=tableLayout;fixedRows=1;rowLines=0;fontStyle=1;align=center;resizeLast=1;html=1;" parent="1" vertex="1">
          <mxGeometry x="120" y="720" width="240" height="90" as="geometry" />
        </mxCell>
        <mxCell id="oUhA9xJmE4I4MFQZkkZ_-12" value="" style="shape=tableRow;horizontal=0;startSize=0;swimlaneHead=0;swimlaneBody=0;fillColor=none;collapsible=0;dropTarget=0;points=[[0,0.5],[1,0.5]];portConstraint=eastwest;top=0;left=0;right=0;bottom=1;" parent="oUhA9xJmE4I4MFQZkkZ_-11" vertex="1">
          <mxGeometry y="30" width="240" height="30" as="geometry" />
        </mxCell>
        <mxCell id="oUhA9xJmE4I4MFQZkkZ_-13" value="PK" style="shape=partialRectangle;connectable=0;fillColor=none;top=0;left=0;bottom=0;right=0;fontStyle=1;overflow=hidden;whiteSpace=wrap;html=1;" parent="oUhA9xJmE4I4MFQZkkZ_-12" vertex="1">
          <mxGeometry width="40" height="30" as="geometry">
            <mxRectangle width="40" height="30" as="alternateBounds" />
          </mxGeometry>
        </mxCell>
        <mxCell id="oUhA9xJmE4I4MFQZkkZ_-14" value="World Id" style="shape=partialRectangle;connectable=0;fillColor=none;top=0;left=0;bottom=0;right=0;align=left;spacingLeft=6;fontStyle=5;overflow=hidden;whiteSpace=wrap;html=1;" parent="oUhA9xJmE4I4MFQZkkZ_-12" vertex="1">
          <mxGeometry x="40" width="200" height="30" as="geometry">
            <mxRectangle width="200" height="30" as="alternateBounds" />
          </mxGeometry>
        </mxCell>
        <mxCell id="oUhA9xJmE4I4MFQZkkZ_-21" value="" style="shape=tableRow;horizontal=0;startSize=0;swimlaneHead=0;swimlaneBody=0;fillColor=none;collapsible=0;dropTarget=0;points=[[0,0.5],[1,0.5]];portConstraint=eastwest;top=0;left=0;right=0;bottom=0;" parent="oUhA9xJmE4I4MFQZkkZ_-11" vertex="1">
          <mxGeometry y="60" width="240" height="30" as="geometry" />
        </mxCell>
        <mxCell id="oUhA9xJmE4I4MFQZkkZ_-22" value="IX" style="shape=partialRectangle;connectable=0;fillColor=none;top=0;left=0;bottom=0;right=0;editable=1;overflow=hidden;whiteSpace=wrap;html=1;" parent="oUhA9xJmE4I4MFQZkkZ_-21" vertex="1">
          <mxGeometry width="40" height="30" as="geometry">
            <mxRectangle width="40" height="30" as="alternateBounds" />
          </mxGeometry>
        </mxCell>
        <mxCell id="oUhA9xJmE4I4MFQZkkZ_-23" value="string WorldName" style="shape=partialRectangle;connectable=0;fillColor=none;top=0;left=0;bottom=0;right=0;align=left;spacingLeft=6;overflow=hidden;whiteSpace=wrap;html=1;" parent="oUhA9xJmE4I4MFQZkkZ_-21" vertex="1">
          <mxGeometry x="40" width="200" height="30" as="geometry">
            <mxRectangle width="200" height="30" as="alternateBounds" />
          </mxGeometry>
        </mxCell>
        <mxCell id="oUhA9xJmE4I4MFQZkkZ_-28" value="" style="edgeStyle=entityRelationEdgeStyle;fontSize=12;html=1;endArrow=ERzeroToMany;startArrow=ERmandOne;jumpStyle=arc;jumpSize=10;rounded=1;" parent="1" source="VoSAtfs1Wnd6ELelLKm_-4" target="oUhA9xJmE4I4MFQZkkZ_-7" edge="1">
          <mxGeometry width="100" height="100" relative="1" as="geometry">
            <mxPoint x="450" y="440" as="sourcePoint" />
            <mxPoint x="550" y="340" as="targetPoint" />
          </mxGeometry>
        </mxCell>
        <mxCell id="oUhA9xJmE4I4MFQZkkZ_-30" value="A3StreetArtistConfig" style="shape=table;startSize=30;container=1;collapsible=1;childLayout=tableLayout;fixedRows=1;rowLines=0;fontStyle=1;align=center;resizeLast=1;html=1;" parent="1" vertex="1">
          <mxGeometry x="480" y="400" width="240" height="150" as="geometry" />
        </mxCell>
        <mxCell id="oUhA9xJmE4I4MFQZkkZ_-31" value="" style="shape=tableRow;horizontal=0;startSize=0;swimlaneHead=0;swimlaneBody=0;fillColor=none;collapsible=0;dropTarget=0;points=[[0,0.5],[1,0.5]];portConstraint=eastwest;top=0;left=0;right=0;bottom=1;" parent="oUhA9xJmE4I4MFQZkkZ_-30" vertex="1">
          <mxGeometry y="30" width="240" height="30" as="geometry" />
        </mxCell>
        <mxCell id="oUhA9xJmE4I4MFQZkkZ_-32" value="FK,PK" style="shape=partialRectangle;connectable=0;fillColor=none;top=0;left=0;bottom=0;right=0;fontStyle=1;overflow=hidden;whiteSpace=wrap;html=1;" parent="oUhA9xJmE4I4MFQZkkZ_-31" vertex="1">
          <mxGeometry width="40" height="30" as="geometry">
            <mxRectangle width="40" height="30" as="alternateBounds" />
          </mxGeometry>
        </mxCell>
        <mxCell id="oUhA9xJmE4I4MFQZkkZ_-33" value="ProjectId ProjectId" style="shape=partialRectangle;connectable=0;fillColor=none;top=0;left=0;bottom=0;right=0;align=left;spacingLeft=6;fontStyle=5;overflow=hidden;whiteSpace=wrap;html=1;" parent="oUhA9xJmE4I4MFQZkkZ_-31" vertex="1">
          <mxGeometry x="40" width="200" height="30" as="geometry">
            <mxRectangle width="200" height="30" as="alternateBounds" />
          </mxGeometry>
        </mxCell>
        <mxCell id="oUhA9xJmE4I4MFQZkkZ_-34" value="" style="shape=tableRow;horizontal=0;startSize=0;swimlaneHead=0;swimlaneBody=0;fillColor=none;collapsible=0;dropTarget=0;points=[[0,0.5],[1,0.5]];portConstraint=eastwest;top=0;left=0;right=0;bottom=0;" parent="oUhA9xJmE4I4MFQZkkZ_-30" vertex="1">
          <mxGeometry y="60" width="240" height="30" as="geometry" />
        </mxCell>
        <mxCell id="oUhA9xJmE4I4MFQZkkZ_-35" value="" style="shape=partialRectangle;connectable=0;fillColor=none;top=0;left=0;bottom=0;right=0;editable=1;overflow=hidden;whiteSpace=wrap;html=1;" parent="oUhA9xJmE4I4MFQZkkZ_-34" vertex="1">
          <mxGeometry width="40" height="30" as="geometry">
            <mxRectangle width="40" height="30" as="alternateBounds" />
          </mxGeometry>
        </mxCell>
        <mxCell id="oUhA9xJmE4I4MFQZkkZ_-36" value="float? FlatMaxDrift" style="shape=partialRectangle;connectable=0;fillColor=none;top=0;left=0;bottom=0;right=0;align=left;spacingLeft=6;overflow=hidden;whiteSpace=wrap;html=1;" parent="oUhA9xJmE4I4MFQZkkZ_-34" vertex="1">
          <mxGeometry x="40" width="200" height="30" as="geometry">
            <mxRectangle width="200" height="30" as="alternateBounds" />
          </mxGeometry>
        </mxCell>
        <mxCell id="oUhA9xJmE4I4MFQZkkZ_-37" value="" style="shape=tableRow;horizontal=0;startSize=0;swimlaneHead=0;swimlaneBody=0;fillColor=none;collapsible=0;dropTarget=0;points=[[0,0.5],[1,0.5]];portConstraint=eastwest;top=0;left=0;right=0;bottom=0;" parent="oUhA9xJmE4I4MFQZkkZ_-30" vertex="1">
          <mxGeometry y="90" width="240" height="30" as="geometry" />
        </mxCell>
        <mxCell id="oUhA9xJmE4I4MFQZkkZ_-38" value="" style="shape=partialRectangle;connectable=0;fillColor=none;top=0;left=0;bottom=0;right=0;editable=1;overflow=hidden;whiteSpace=wrap;html=1;" parent="oUhA9xJmE4I4MFQZkkZ_-37" vertex="1">
          <mxGeometry width="40" height="30" as="geometry">
            <mxRectangle width="40" height="30" as="alternateBounds" />
          </mxGeometry>
        </mxCell>
        <mxCell id="oUhA9xJmE4I4MFQZkkZ_-39" value="float? JuncMergeDistance" style="shape=partialRectangle;connectable=0;fillColor=none;top=0;left=0;bottom=0;right=0;align=left;spacingLeft=6;overflow=hidden;whiteSpace=wrap;html=1;" parent="oUhA9xJmE4I4MFQZkkZ_-37" vertex="1">
          <mxGeometry x="40" width="200" height="30" as="geometry">
            <mxRectangle width="200" height="30" as="alternateBounds" />
          </mxGeometry>
        </mxCell>
        <mxCell id="oUhA9xJmE4I4MFQZkkZ_-40" value="" style="shape=tableRow;horizontal=0;startSize=0;swimlaneHead=0;swimlaneBody=0;fillColor=none;collapsible=0;dropTarget=0;points=[[0,0.5],[1,0.5]];portConstraint=eastwest;top=0;left=0;right=0;bottom=0;" parent="oUhA9xJmE4I4MFQZkkZ_-30" vertex="1">
          <mxGeometry y="120" width="240" height="30" as="geometry" />
        </mxCell>
        <mxCell id="oUhA9xJmE4I4MFQZkkZ_-41" value="" style="shape=partialRectangle;connectable=0;fillColor=none;top=0;left=0;bottom=0;right=0;editable=1;overflow=hidden;whiteSpace=wrap;html=1;" parent="oUhA9xJmE4I4MFQZkkZ_-40" vertex="1">
          <mxGeometry width="40" height="30" as="geometry">
            <mxRectangle width="40" height="30" as="alternateBounds" />
          </mxGeometry>
        </mxCell>
        <mxCell id="oUhA9xJmE4I4MFQZkkZ_-42" value="bool HumanEdited" style="shape=partialRectangle;connectable=0;fillColor=none;top=0;left=0;bottom=0;right=0;align=left;spacingLeft=6;overflow=hidden;whiteSpace=wrap;html=1;" parent="oUhA9xJmE4I4MFQZkkZ_-40" vertex="1">
          <mxGeometry x="40" width="200" height="30" as="geometry">
            <mxRectangle width="200" height="30" as="alternateBounds" />
          </mxGeometry>
        </mxCell>
        <mxCell id="VoSAtfs1Wnd6ELelLKm_-3" value="Project" style="shape=table;startSize=30;container=1;collapsible=1;childLayout=tableLayout;fixedRows=1;rowLines=0;fontStyle=1;align=center;resizeLast=1;html=1;" parent="1" vertex="1">
          <mxGeometry x="120" y="480" width="240" height="180" as="geometry" />
        </mxCell>
        <mxCell id="VoSAtfs1Wnd6ELelLKm_-4" value="" style="shape=tableRow;horizontal=0;startSize=0;swimlaneHead=0;swimlaneBody=0;fillColor=none;collapsible=0;dropTarget=0;points=[[0,0.5],[1,0.5]];portConstraint=eastwest;top=0;left=0;right=0;bottom=1;" parent="VoSAtfs1Wnd6ELelLKm_-3" vertex="1">
          <mxGeometry y="30" width="240" height="30" as="geometry" />
        </mxCell>
        <mxCell id="VoSAtfs1Wnd6ELelLKm_-5" value="PK" style="shape=partialRectangle;connectable=0;fillColor=none;top=0;left=0;bottom=0;right=0;fontStyle=1;overflow=hidden;whiteSpace=wrap;html=1;" parent="VoSAtfs1Wnd6ELelLKm_-4" vertex="1">
          <mxGeometry width="30" height="30" as="geometry">
            <mxRectangle width="30" height="30" as="alternateBounds" />
          </mxGeometry>
        </mxCell>
        <mxCell id="VoSAtfs1Wnd6ELelLKm_-6" value="ProjectId ProjectId" style="shape=partialRectangle;connectable=0;fillColor=none;top=0;left=0;bottom=0;right=0;align=left;spacingLeft=6;fontStyle=5;overflow=hidden;whiteSpace=wrap;html=1;" parent="VoSAtfs1Wnd6ELelLKm_-4" vertex="1">
          <mxGeometry x="30" width="210" height="30" as="geometry">
            <mxRectangle width="210" height="30" as="alternateBounds" />
          </mxGeometry>
        </mxCell>
        <mxCell id="VoSAtfs1Wnd6ELelLKm_-7" value="" style="shape=tableRow;horizontal=0;startSize=0;swimlaneHead=0;swimlaneBody=0;fillColor=none;collapsible=0;dropTarget=0;points=[[0,0.5],[1,0.5]];portConstraint=eastwest;top=0;left=0;right=0;bottom=0;" parent="VoSAtfs1Wnd6ELelLKm_-3" vertex="1">
          <mxGeometry y="60" width="240" height="30" as="geometry" />
        </mxCell>
        <mxCell id="VoSAtfs1Wnd6ELelLKm_-8" value="FK" style="shape=partialRectangle;connectable=0;fillColor=none;top=0;left=0;bottom=0;right=0;editable=1;overflow=hidden;whiteSpace=wrap;html=1;" parent="VoSAtfs1Wnd6ELelLKm_-7" vertex="1">
          <mxGeometry width="30" height="30" as="geometry">
            <mxRectangle width="30" height="30" as="alternateBounds" />
          </mxGeometry>
        </mxCell>
        <mxCell id="VoSAtfs1Wnd6ELelLKm_-9" value="WorldId WorldId" style="shape=partialRectangle;connectable=0;fillColor=none;top=0;left=0;bottom=0;right=0;align=left;spacingLeft=6;overflow=hidden;whiteSpace=wrap;html=1;" parent="VoSAtfs1Wnd6ELelLKm_-7" vertex="1">
          <mxGeometry x="30" width="210" height="30" as="geometry">
            <mxRectangle width="210" height="30" as="alternateBounds" />
          </mxGeometry>
        </mxCell>
        <mxCell id="oUhA9xJmE4I4MFQZkkZ_-18" value="" style="shape=tableRow;horizontal=0;startSize=0;swimlaneHead=0;swimlaneBody=0;fillColor=none;collapsible=0;dropTarget=0;points=[[0,0.5],[1,0.5]];portConstraint=eastwest;top=0;left=0;right=0;bottom=0;" parent="VoSAtfs1Wnd6ELelLKm_-3" vertex="1">
          <mxGeometry y="90" width="240" height="30" as="geometry" />
        </mxCell>
        <mxCell id="oUhA9xJmE4I4MFQZkkZ_-19" value="" style="shape=partialRectangle;connectable=0;fillColor=none;top=0;left=0;bottom=0;right=0;editable=1;overflow=hidden;whiteSpace=wrap;html=1;" parent="oUhA9xJmE4I4MFQZkkZ_-18" vertex="1">
          <mxGeometry width="30" height="30" as="geometry">
            <mxRectangle width="30" height="30" as="alternateBounds" />
          </mxGeometry>
        </mxCell>
        <mxCell id="oUhA9xJmE4I4MFQZkkZ_-20" value="DateTimeOffset Created" style="shape=partialRectangle;connectable=0;fillColor=none;top=0;left=0;bottom=0;right=0;align=left;spacingLeft=6;overflow=hidden;whiteSpace=wrap;html=1;" parent="oUhA9xJmE4I4MFQZkkZ_-18" vertex="1">
          <mxGeometry x="30" width="210" height="30" as="geometry">
            <mxRectangle width="210" height="30" as="alternateBounds" />
          </mxGeometry>
        </mxCell>
        <mxCell id="oUhA9xJmE4I4MFQZkkZ_-15" style="shape=tableRow;horizontal=0;startSize=0;swimlaneHead=0;swimlaneBody=0;fillColor=none;collapsible=0;dropTarget=0;points=[[0,0.5],[1,0.5]];portConstraint=eastwest;top=0;left=0;right=0;bottom=0;" parent="VoSAtfs1Wnd6ELelLKm_-3" vertex="1">
          <mxGeometry y="120" width="240" height="30" as="geometry" />
        </mxCell>
        <mxCell id="oUhA9xJmE4I4MFQZkkZ_-16" value="" style="shape=partialRectangle;connectable=0;fillColor=none;top=0;left=0;bottom=0;right=0;editable=1;overflow=hidden;whiteSpace=wrap;html=1;" parent="oUhA9xJmE4I4MFQZkkZ_-15" vertex="1">
          <mxGeometry width="30" height="30" as="geometry">
            <mxRectangle width="30" height="30" as="alternateBounds" />
          </mxGeometry>
        </mxCell>
        <mxCell id="oUhA9xJmE4I4MFQZkkZ_-17" value="DateTimeOffset LastEdited" style="shape=partialRectangle;connectable=0;fillColor=none;top=0;left=0;bottom=0;right=0;align=left;spacingLeft=6;overflow=hidden;whiteSpace=wrap;html=1;" parent="oUhA9xJmE4I4MFQZkkZ_-15" vertex="1">
          <mxGeometry x="30" width="210" height="30" as="geometry">
            <mxRectangle width="210" height="30" as="alternateBounds" />
          </mxGeometry>
        </mxCell>
        <mxCell id="VoSAtfs1Wnd6ELelLKm_-20" style="shape=tableRow;horizontal=0;startSize=0;swimlaneHead=0;swimlaneBody=0;fillColor=none;collapsible=0;dropTarget=0;points=[[0,0.5],[1,0.5]];portConstraint=eastwest;top=0;left=0;right=0;bottom=0;" parent="VoSAtfs1Wnd6ELelLKm_-3" vertex="1">
          <mxGeometry y="150" width="240" height="30" as="geometry" />
        </mxCell>
        <mxCell id="VoSAtfs1Wnd6ELelLKm_-21" style="shape=partialRectangle;connectable=0;fillColor=none;top=0;left=0;bottom=0;right=0;editable=1;overflow=hidden;whiteSpace=wrap;html=1;" parent="VoSAtfs1Wnd6ELelLKm_-20" vertex="1">
          <mxGeometry width="30" height="30" as="geometry">
            <mxRectangle width="30" height="30" as="alternateBounds" />
          </mxGeometry>
        </mxCell>
        <mxCell id="VoSAtfs1Wnd6ELelLKm_-22" value="string Authors" style="shape=partialRectangle;connectable=0;fillColor=none;top=0;left=0;bottom=0;right=0;align=left;spacingLeft=6;overflow=hidden;whiteSpace=wrap;html=1;" parent="VoSAtfs1Wnd6ELelLKm_-20" vertex="1">
          <mxGeometry x="30" width="210" height="30" as="geometry">
            <mxRectangle width="210" height="30" as="alternateBounds" />
          </mxGeometry>
        </mxCell>
        <mxCell id="VoSAtfs1Wnd6ELelLKm_-16" value="" style="edgeStyle=entityRelationEdgeStyle;fontSize=12;html=1;endArrow=ERzeroToMany;startArrow=ERmandOne;jumpStyle=arc;jumpSize=10;rounded=1;" parent="1" source="oUhA9xJmE4I4MFQZkkZ_-12" target="VoSAtfs1Wnd6ELelLKm_-7" edge="1">
          <mxGeometry width="100" height="100" relative="1" as="geometry">
            <mxPoint x="270" y="535" as="sourcePoint" />
            <mxPoint x="370" y="245" as="targetPoint" />
          </mxGeometry>
        </mxCell>
        <mxCell id="VoSAtfs1Wnd6ELelLKm_-23" value="" style="edgeStyle=entityRelationEdgeStyle;fontSize=12;html=1;endArrow=ERzeroToOne;startArrow=ERmandOne;rounded=1;jumpStyle=arc;jumpSize=10;" parent="1" source="VoSAtfs1Wnd6ELelLKm_-4" target="oUhA9xJmE4I4MFQZkkZ_-31" edge="1">
          <mxGeometry width="100" height="100" relative="1" as="geometry">
            <mxPoint x="370" y="540" as="sourcePoint" />
            <mxPoint x="470" y="440" as="targetPoint" />
          </mxGeometry>
        </mxCell>
        <mxCell id="ktlyv153Vk2_-nZJNRoP-1" value="HistoryItem" style="shape=table;startSize=30;container=1;collapsible=1;childLayout=tableLayout;fixedRows=1;rowLines=0;fontStyle=1;align=center;resizeLast=1;html=1;" vertex="1" parent="1">
          <mxGeometry x="480" y="840" width="240" height="180" as="geometry" />
        </mxCell>
        <mxCell id="ktlyv153Vk2_-nZJNRoP-2" value="" style="shape=tableRow;horizontal=0;startSize=0;swimlaneHead=0;swimlaneBody=0;fillColor=none;collapsible=0;dropTarget=0;points=[[0,0.5],[1,0.5]];portConstraint=eastwest;top=0;left=0;right=0;bottom=1;" vertex="1" parent="ktlyv153Vk2_-nZJNRoP-1">
          <mxGeometry y="30" width="240" height="30" as="geometry" />
        </mxCell>
        <mxCell id="ktlyv153Vk2_-nZJNRoP-3" value="PK" style="shape=partialRectangle;connectable=0;fillColor=none;top=0;left=0;bottom=0;right=0;fontStyle=1;overflow=hidden;whiteSpace=wrap;html=1;" vertex="1" parent="ktlyv153Vk2_-nZJNRoP-2">
          <mxGeometry width="30" height="30" as="geometry">
            <mxRectangle width="30" height="30" as="alternateBounds" />
          </mxGeometry>
        </mxCell>
        <mxCell id="ktlyv153Vk2_-nZJNRoP-4" value="HistoryItemId&amp;nbsp;HistoryItemId&amp;nbsp;" style="shape=partialRectangle;connectable=0;fillColor=none;top=0;left=0;bottom=0;right=0;align=left;spacingLeft=6;fontStyle=5;overflow=hidden;whiteSpace=wrap;html=1;" vertex="1" parent="ktlyv153Vk2_-nZJNRoP-2">
          <mxGeometry x="30" width="210" height="30" as="geometry">
            <mxRectangle width="210" height="30" as="alternateBounds" />
          </mxGeometry>
        </mxCell>
        <mxCell id="ktlyv153Vk2_-nZJNRoP-5" value="" style="shape=tableRow;horizontal=0;startSize=0;swimlaneHead=0;swimlaneBody=0;fillColor=none;collapsible=0;dropTarget=0;points=[[0,0.5],[1,0.5]];portConstraint=eastwest;top=0;left=0;right=0;bottom=0;" vertex="1" parent="ktlyv153Vk2_-nZJNRoP-1">
          <mxGeometry y="60" width="240" height="30" as="geometry" />
        </mxCell>
        <mxCell id="ktlyv153Vk2_-nZJNRoP-6" value="FK" style="shape=partialRectangle;connectable=0;fillColor=none;top=0;left=0;bottom=0;right=0;editable=1;overflow=hidden;whiteSpace=wrap;html=1;" vertex="1" parent="ktlyv153Vk2_-nZJNRoP-5">
          <mxGeometry width="30" height="30" as="geometry">
            <mxRectangle width="30" height="30" as="alternateBounds" />
          </mxGeometry>
        </mxCell>
        <mxCell id="ktlyv153Vk2_-nZJNRoP-7" value="HistoricPeriodId&amp;nbsp;HistoricPeriodId" style="shape=partialRectangle;connectable=0;fillColor=none;top=0;left=0;bottom=0;right=0;align=left;spacingLeft=6;overflow=hidden;whiteSpace=wrap;html=1;" vertex="1" parent="ktlyv153Vk2_-nZJNRoP-5">
          <mxGeometry x="30" width="210" height="30" as="geometry">
            <mxRectangle width="210" height="30" as="alternateBounds" />
          </mxGeometry>
        </mxCell>
        <mxCell id="ktlyv153Vk2_-nZJNRoP-8" value="" style="shape=tableRow;horizontal=0;startSize=0;swimlaneHead=0;swimlaneBody=0;fillColor=none;collapsible=0;dropTarget=0;points=[[0,0.5],[1,0.5]];portConstraint=eastwest;top=0;left=0;right=0;bottom=0;" vertex="1" parent="ktlyv153Vk2_-nZJNRoP-1">
          <mxGeometry y="90" width="240" height="30" as="geometry" />
        </mxCell>
        <mxCell id="ktlyv153Vk2_-nZJNRoP-9" value="" style="shape=partialRectangle;connectable=0;fillColor=none;top=0;left=0;bottom=0;right=0;editable=1;overflow=hidden;whiteSpace=wrap;html=1;" vertex="1" parent="ktlyv153Vk2_-nZJNRoP-8">
          <mxGeometry width="30" height="30" as="geometry">
            <mxRectangle width="30" height="30" as="alternateBounds" />
          </mxGeometry>
        </mxCell>
        <mxCell id="ktlyv153Vk2_-nZJNRoP-10" value="DateTimeOffset Created" style="shape=partialRectangle;connectable=0;fillColor=none;top=0;left=0;bottom=0;right=0;align=left;spacingLeft=6;overflow=hidden;whiteSpace=wrap;html=1;" vertex="1" parent="ktlyv153Vk2_-nZJNRoP-8">
          <mxGeometry x="30" width="210" height="30" as="geometry">
            <mxRectangle width="210" height="30" as="alternateBounds" />
          </mxGeometry>
        </mxCell>
        <mxCell id="ktlyv153Vk2_-nZJNRoP-41" style="shape=tableRow;horizontal=0;startSize=0;swimlaneHead=0;swimlaneBody=0;fillColor=none;collapsible=0;dropTarget=0;points=[[0,0.5],[1,0.5]];portConstraint=eastwest;top=0;left=0;right=0;bottom=0;" vertex="1" parent="ktlyv153Vk2_-nZJNRoP-1">
          <mxGeometry y="120" width="240" height="30" as="geometry" />
        </mxCell>
        <mxCell id="ktlyv153Vk2_-nZJNRoP-42" style="shape=partialRectangle;connectable=0;fillColor=none;top=0;left=0;bottom=0;right=0;editable=1;overflow=hidden;whiteSpace=wrap;html=1;" vertex="1" parent="ktlyv153Vk2_-nZJNRoP-41">
          <mxGeometry width="30" height="30" as="geometry">
            <mxRectangle width="30" height="30" as="alternateBounds" />
          </mxGeometry>
        </mxCell>
        <mxCell id="ktlyv153Vk2_-nZJNRoP-43" value="string Label" style="shape=partialRectangle;connectable=0;fillColor=none;top=0;left=0;bottom=0;right=0;align=left;spacingLeft=6;overflow=hidden;whiteSpace=wrap;html=1;" vertex="1" parent="ktlyv153Vk2_-nZJNRoP-41">
          <mxGeometry x="30" width="210" height="30" as="geometry">
            <mxRectangle width="210" height="30" as="alternateBounds" />
          </mxGeometry>
        </mxCell>
        <mxCell id="ktlyv153Vk2_-nZJNRoP-11" style="shape=tableRow;horizontal=0;startSize=0;swimlaneHead=0;swimlaneBody=0;fillColor=none;collapsible=0;dropTarget=0;points=[[0,0.5],[1,0.5]];portConstraint=eastwest;top=0;left=0;right=0;bottom=0;" vertex="1" parent="ktlyv153Vk2_-nZJNRoP-1">
          <mxGeometry y="150" width="240" height="30" as="geometry" />
        </mxCell>
        <mxCell id="ktlyv153Vk2_-nZJNRoP-12" value="" style="shape=partialRectangle;connectable=0;fillColor=none;top=0;left=0;bottom=0;right=0;editable=1;overflow=hidden;whiteSpace=wrap;html=1;" vertex="1" parent="ktlyv153Vk2_-nZJNRoP-11">
          <mxGeometry width="30" height="30" as="geometry">
            <mxRectangle width="30" height="30" as="alternateBounds" />
          </mxGeometry>
        </mxCell>
        <mxCell id="ktlyv153Vk2_-nZJNRoP-13" value="blob SerialisedEntity" style="shape=partialRectangle;connectable=0;fillColor=none;top=0;left=0;bottom=0;right=0;align=left;spacingLeft=6;overflow=hidden;whiteSpace=wrap;html=1;" vertex="1" parent="ktlyv153Vk2_-nZJNRoP-11">
          <mxGeometry x="30" width="210" height="30" as="geometry">
            <mxRectangle width="210" height="30" as="alternateBounds" />
          </mxGeometry>
        </mxCell>
        <mxCell id="ktlyv153Vk2_-nZJNRoP-17" value="" style="edgeStyle=entityRelationEdgeStyle;fontSize=12;html=1;endArrow=ERzeroToMany;startArrow=ERmandOne;jumpStyle=arc;jumpSize=10;rounded=1;" edge="1" parent="1" source="ktlyv153Vk2_-nZJNRoP-19" target="ktlyv153Vk2_-nZJNRoP-5">
          <mxGeometry width="100" height="100" relative="1" as="geometry">
            <mxPoint x="580" y="790" as="sourcePoint" />
            <mxPoint x="490" y="325" as="targetPoint" />
          </mxGeometry>
        </mxCell>
        <mxCell id="ktlyv153Vk2_-nZJNRoP-18" value="HistoricPeriod" style="shape=table;startSize=30;container=1;collapsible=1;childLayout=tableLayout;fixedRows=1;rowLines=0;fontStyle=1;align=center;resizeLast=1;html=1;" vertex="1" parent="1">
          <mxGeometry x="480" y="600" width="240" height="180" as="geometry" />
        </mxCell>
        <mxCell id="ktlyv153Vk2_-nZJNRoP-19" value="" style="shape=tableRow;horizontal=0;startSize=0;swimlaneHead=0;swimlaneBody=0;fillColor=none;collapsible=0;dropTarget=0;points=[[0,0.5],[1,0.5]];portConstraint=eastwest;top=0;left=0;right=0;bottom=1;" vertex="1" parent="ktlyv153Vk2_-nZJNRoP-18">
          <mxGeometry y="30" width="240" height="30" as="geometry" />
        </mxCell>
        <mxCell id="ktlyv153Vk2_-nZJNRoP-20" value="PK" style="shape=partialRectangle;connectable=0;fillColor=none;top=0;left=0;bottom=0;right=0;fontStyle=1;overflow=hidden;whiteSpace=wrap;html=1;" vertex="1" parent="ktlyv153Vk2_-nZJNRoP-19">
          <mxGeometry width="30" height="30" as="geometry">
            <mxRectangle width="30" height="30" as="alternateBounds" />
          </mxGeometry>
        </mxCell>
        <mxCell id="ktlyv153Vk2_-nZJNRoP-21" value="HistoricPeriodId&amp;nbsp;HistoricPeriodId&amp;nbsp;" style="shape=partialRectangle;connectable=0;fillColor=none;top=0;left=0;bottom=0;right=0;align=left;spacingLeft=6;fontStyle=5;overflow=hidden;whiteSpace=wrap;html=1;" vertex="1" parent="ktlyv153Vk2_-nZJNRoP-19">
          <mxGeometry x="30" width="210" height="30" as="geometry">
            <mxRectangle width="210" height="30" as="alternateBounds" />
          </mxGeometry>
        </mxCell>
        <mxCell id="ktlyv153Vk2_-nZJNRoP-22" value="" style="shape=tableRow;horizontal=0;startSize=0;swimlaneHead=0;swimlaneBody=0;fillColor=none;collapsible=0;dropTarget=0;points=[[0,0.5],[1,0.5]];portConstraint=eastwest;top=0;left=0;right=0;bottom=0;" vertex="1" parent="ktlyv153Vk2_-nZJNRoP-18">
          <mxGeometry y="60" width="240" height="30" as="geometry" />
        </mxCell>
        <mxCell id="ktlyv153Vk2_-nZJNRoP-23" value="FK" style="shape=partialRectangle;connectable=0;fillColor=none;top=0;left=0;bottom=0;right=0;editable=1;overflow=hidden;whiteSpace=wrap;html=1;" vertex="1" parent="ktlyv153Vk2_-nZJNRoP-22">
          <mxGeometry width="30" height="30" as="geometry">
            <mxRectangle width="30" height="30" as="alternateBounds" />
          </mxGeometry>
        </mxCell>
        <mxCell id="ktlyv153Vk2_-nZJNRoP-24" value="ProjectId ProjectId" style="shape=partialRectangle;connectable=0;fillColor=none;top=0;left=0;bottom=0;right=0;align=left;spacingLeft=6;overflow=hidden;whiteSpace=wrap;html=1;" vertex="1" parent="ktlyv153Vk2_-nZJNRoP-22">
          <mxGeometry x="30" width="210" height="30" as="geometry">
            <mxRectangle width="210" height="30" as="alternateBounds" />
          </mxGeometry>
        </mxCell>
        <mxCell id="ktlyv153Vk2_-nZJNRoP-25" value="" style="shape=tableRow;horizontal=0;startSize=0;swimlaneHead=0;swimlaneBody=0;fillColor=none;collapsible=0;dropTarget=0;points=[[0,0.5],[1,0.5]];portConstraint=eastwest;top=0;left=0;right=0;bottom=0;" vertex="1" parent="ktlyv153Vk2_-nZJNRoP-18">
          <mxGeometry y="90" width="240" height="30" as="geometry" />
        </mxCell>
        <mxCell id="ktlyv153Vk2_-nZJNRoP-26" value="" style="shape=partialRectangle;connectable=0;fillColor=none;top=0;left=0;bottom=0;right=0;editable=1;overflow=hidden;whiteSpace=wrap;html=1;" vertex="1" parent="ktlyv153Vk2_-nZJNRoP-25">
          <mxGeometry width="30" height="30" as="geometry">
            <mxRectangle width="30" height="30" as="alternateBounds" />
          </mxGeometry>
        </mxCell>
        <mxCell id="ktlyv153Vk2_-nZJNRoP-27" value="DateTimeOffset Earliest" style="shape=partialRectangle;connectable=0;fillColor=none;top=0;left=0;bottom=0;right=0;align=left;spacingLeft=6;overflow=hidden;whiteSpace=wrap;html=1;" vertex="1" parent="ktlyv153Vk2_-nZJNRoP-25">
          <mxGeometry x="30" width="210" height="30" as="geometry">
            <mxRectangle width="210" height="30" as="alternateBounds" />
          </mxGeometry>
        </mxCell>
        <mxCell id="ktlyv153Vk2_-nZJNRoP-31" style="shape=tableRow;horizontal=0;startSize=0;swimlaneHead=0;swimlaneBody=0;fillColor=none;collapsible=0;dropTarget=0;points=[[0,0.5],[1,0.5]];portConstraint=eastwest;top=0;left=0;right=0;bottom=0;" vertex="1" parent="ktlyv153Vk2_-nZJNRoP-18">
          <mxGeometry y="120" width="240" height="30" as="geometry" />
        </mxCell>
        <mxCell id="ktlyv153Vk2_-nZJNRoP-32" style="shape=partialRectangle;connectable=0;fillColor=none;top=0;left=0;bottom=0;right=0;editable=1;overflow=hidden;whiteSpace=wrap;html=1;" vertex="1" parent="ktlyv153Vk2_-nZJNRoP-31">
          <mxGeometry width="30" height="30" as="geometry">
            <mxRectangle width="30" height="30" as="alternateBounds" />
          </mxGeometry>
        </mxCell>
        <mxCell id="ktlyv153Vk2_-nZJNRoP-33" value="DateTimeOffset Latest" style="shape=partialRectangle;connectable=0;fillColor=none;top=0;left=0;bottom=0;right=0;align=left;spacingLeft=6;overflow=hidden;whiteSpace=wrap;html=1;" vertex="1" parent="ktlyv153Vk2_-nZJNRoP-31">
          <mxGeometry x="30" width="210" height="30" as="geometry">
            <mxRectangle width="210" height="30" as="alternateBounds" />
          </mxGeometry>
        </mxCell>
        <mxCell id="ktlyv153Vk2_-nZJNRoP-38" style="shape=tableRow;horizontal=0;startSize=0;swimlaneHead=0;swimlaneBody=0;fillColor=none;collapsible=0;dropTarget=0;points=[[0,0.5],[1,0.5]];portConstraint=eastwest;top=0;left=0;right=0;bottom=0;" vertex="1" parent="ktlyv153Vk2_-nZJNRoP-18">
          <mxGeometry y="150" width="240" height="30" as="geometry" />
        </mxCell>
        <mxCell id="ktlyv153Vk2_-nZJNRoP-39" style="shape=partialRectangle;connectable=0;fillColor=none;top=0;left=0;bottom=0;right=0;editable=1;overflow=hidden;whiteSpace=wrap;html=1;" vertex="1" parent="ktlyv153Vk2_-nZJNRoP-38">
          <mxGeometry width="30" height="30" as="geometry">
            <mxRectangle width="30" height="30" as="alternateBounds" />
          </mxGeometry>
        </mxCell>
        <mxCell id="ktlyv153Vk2_-nZJNRoP-40" value="string Label" style="shape=partialRectangle;connectable=0;fillColor=none;top=0;left=0;bottom=0;right=0;align=left;spacingLeft=6;overflow=hidden;whiteSpace=wrap;html=1;" vertex="1" parent="ktlyv153Vk2_-nZJNRoP-38">
          <mxGeometry x="30" width="210" height="30" as="geometry">
            <mxRectangle width="210" height="30" as="alternateBounds" />
          </mxGeometry>
        </mxCell>
        <mxCell id="ktlyv153Vk2_-nZJNRoP-34" value="" style="edgeStyle=entityRelationEdgeStyle;fontSize=12;html=1;endArrow=ERzeroToMany;startArrow=ERmandOne;jumpStyle=arc;jumpSize=10;rounded=1;" edge="1" parent="1" source="VoSAtfs1Wnd6ELelLKm_-4" target="ktlyv153Vk2_-nZJNRoP-22">
          <mxGeometry width="100" height="100" relative="1" as="geometry">
            <mxPoint x="590" y="800" as="sourcePoint" />
            <mxPoint x="660" y="915" as="targetPoint" />
          </mxGeometry>
        </mxCell>
      </root>
    </mxGraphModel>
  </diagram>
  <diagram id="vAfNWWZMimGFOoUXoVyF" name="Undo Redo">
    <mxGraphModel dx="2074" dy="1214" grid="1" gridSize="10" guides="1" tooltips="1" connect="1" arrows="1" fold="1" page="1" pageScale="1" pageWidth="827" pageHeight="1169" math="0" shadow="0">
      <root>
        <mxCell id="0" />
        <mxCell id="1" parent="0" />
        <mxCell id="9ln2qtu2F0F773BEIFo8-88" value="1: Make&lt;br&gt;Change" style="edgeStyle=orthogonalEdgeStyle;rounded=0;orthogonalLoop=1;jettySize=auto;html=1;entryX=0.5;entryY=0;entryDx=0;entryDy=0;fillColor=#008a00;strokeColor=#005700;strokeWidth=3;startArrow=halfCircle;startFill=0;endArrow=block;endFill=0;targetPerimeterSpacing=0;startSize=4;" parent="1" source="9ln2qtu2F0F773BEIFo8-10" target="9ln2qtu2F0F773BEIFo8-19" edge="1">
          <mxGeometry x="-0.742" relative="1" as="geometry">
            <Array as="points">
              <mxPoint x="560" y="280" />
              <mxPoint x="200" y="280" />
            </Array>
            <mxPoint as="offset" />
          </mxGeometry>
        </mxCell>
        <mxCell id="9ln2qtu2F0F773BEIFo8-4" value="Datastore" style="shape=cylinder3;whiteSpace=wrap;html=1;boundedLbl=1;backgroundOutline=1;size=15;" parent="1" vertex="1">
          <mxGeometry x="240" y="1000" width="80" height="80" as="geometry" />
        </mxCell>
        <mxCell id="9ln2qtu2F0F773BEIFo8-6" value="EFCore" style="swimlane;whiteSpace=wrap;html=1;" parent="1" vertex="1">
          <mxGeometry x="80" y="360" width="240" height="440" as="geometry" />
        </mxCell>
        <mxCell id="9ln2qtu2F0F773BEIFo8-23" style="edgeStyle=orthogonalEdgeStyle;rounded=0;orthogonalLoop=1;jettySize=auto;html=1;fillColor=#60a917;strokeColor=#2D7600;strokeWidth=3;startArrow=halfCircle;startFill=0;endArrow=block;endFill=0;targetPerimeterSpacing=0;startSize=4;" parent="9ln2qtu2F0F773BEIFo8-6" source="9ln2qtu2F0F773BEIFo8-19" target="9ln2qtu2F0F773BEIFo8-22" edge="1">
          <mxGeometry relative="1" as="geometry" />
        </mxCell>
        <mxCell id="9ln2qtu2F0F773BEIFo8-93" value="2: Check Entity Type" style="edgeLabel;html=1;align=center;verticalAlign=middle;resizable=0;points=[];" parent="9ln2qtu2F0F773BEIFo8-23" vertex="1" connectable="0">
          <mxGeometry x="-0.1833" y="2" relative="1" as="geometry">
            <mxPoint as="offset" />
          </mxGeometry>
        </mxCell>
        <mxCell id="9ln2qtu2F0F773BEIFo8-19" value="Add / Modify / Delete Entity" style="rounded=0;whiteSpace=wrap;html=1;fillColor=#60a917;fontColor=#ffffff;strokeColor=#2D7600;" parent="9ln2qtu2F0F773BEIFo8-6" vertex="1">
          <mxGeometry x="40" y="40" width="160" height="60" as="geometry" />
        </mxCell>
        <mxCell id="9ln2qtu2F0F773BEIFo8-73" style="edgeStyle=orthogonalEdgeStyle;rounded=0;orthogonalLoop=1;jettySize=auto;html=1;entryX=0.5;entryY=0;entryDx=0;entryDy=0;exitX=0.5;exitY=1;exitDx=0;exitDy=0;fillColor=#60a917;strokeColor=#2D7600;strokeWidth=3;startArrow=halfCircle;startFill=0;endArrow=block;endFill=0;targetPerimeterSpacing=0;startSize=4;" parent="9ln2qtu2F0F773BEIFo8-6" source="9ln2qtu2F0F773BEIFo8-22" target="9ln2qtu2F0F773BEIFo8-72" edge="1">
          <mxGeometry relative="1" as="geometry" />
        </mxCell>
        <mxCell id="9ln2qtu2F0F773BEIFo8-74" value="No" style="edgeLabel;html=1;align=center;verticalAlign=middle;resizable=0;points=[];" parent="9ln2qtu2F0F773BEIFo8-73" vertex="1" connectable="0">
          <mxGeometry x="-0.5111" y="3" relative="1" as="geometry">
            <mxPoint x="-3" y="6" as="offset" />
          </mxGeometry>
        </mxCell>
        <mxCell id="9ln2qtu2F0F773BEIFo8-22" value="Is Journaled Entity" style="rhombus;whiteSpace=wrap;html=1;fillColor=#60a917;fontColor=#ffffff;strokeColor=#2D7600;" parent="9ln2qtu2F0F773BEIFo8-6" vertex="1">
          <mxGeometry x="80" y="160" width="80" height="80" as="geometry" />
        </mxCell>
        <mxCell id="9ln2qtu2F0F773BEIFo8-72" value="Save to Database" style="rounded=0;whiteSpace=wrap;html=1;fillColor=#60a917;fontColor=#ffffff;strokeColor=#2D7600;" parent="9ln2qtu2F0F773BEIFo8-6" vertex="1">
          <mxGeometry x="40" y="320" width="160" height="60" as="geometry" />
        </mxCell>
        <mxCell id="9ln2qtu2F0F773BEIFo8-89" style="edgeStyle=orthogonalEdgeStyle;rounded=0;orthogonalLoop=1;jettySize=auto;html=1;entryX=0.5;entryY=0;entryDx=0;entryDy=0;fillColor=#a20025;strokeColor=#6F0000;strokeWidth=3;startArrow=halfCircle;startFill=0;endArrow=block;endFill=0;targetPerimeterSpacing=0;startSize=4;" parent="1" source="9ln2qtu2F0F773BEIFo8-10" target="9ln2qtu2F0F773BEIFo8-77" edge="1">
          <mxGeometry relative="1" as="geometry">
            <Array as="points">
              <mxPoint x="585" y="280" />
              <mxPoint x="720" y="280" />
            </Array>
          </mxGeometry>
        </mxCell>
        <mxCell id="9ln2qtu2F0F773BEIFo8-100" value="1: Press&amp;nbsp;Undo" style="edgeLabel;html=1;align=center;verticalAlign=middle;resizable=0;points=[];" parent="9ln2qtu2F0F773BEIFo8-89" vertex="1" connectable="0">
          <mxGeometry x="-0.6088" y="-3" relative="1" as="geometry">
            <mxPoint x="28" y="49" as="offset" />
          </mxGeometry>
        </mxCell>
        <mxCell id="9ln2qtu2F0F773BEIFo8-90" style="edgeStyle=orthogonalEdgeStyle;rounded=0;orthogonalLoop=1;jettySize=auto;html=1;entryX=0.5;entryY=0;entryDx=0;entryDy=0;fillColor=#1ba1e2;strokeColor=#006EAF;strokeWidth=3;startArrow=halfCircle;startFill=0;endArrow=block;endFill=0;targetPerimeterSpacing=0;startSize=4;" parent="1" source="9ln2qtu2F0F773BEIFo8-10" target="9ln2qtu2F0F773BEIFo8-79" edge="1">
          <mxGeometry relative="1" as="geometry">
            <Array as="points">
              <mxPoint x="610" y="240" />
              <mxPoint x="960" y="240" />
            </Array>
          </mxGeometry>
        </mxCell>
        <mxCell id="9ln2qtu2F0F773BEIFo8-131" value="1: Press Redo" style="edgeLabel;html=1;align=center;verticalAlign=middle;resizable=0;points=[];" parent="9ln2qtu2F0F773BEIFo8-90" vertex="1" connectable="0">
          <mxGeometry x="-0.5733" y="-2" relative="1" as="geometry">
            <mxPoint as="offset" />
          </mxGeometry>
        </mxCell>
        <mxCell id="9ln2qtu2F0F773BEIFo8-10" value="User" style="shape=umlActor;verticalLabelPosition=bottom;verticalAlign=top;html=1;outlineConnect=0;" parent="1" vertex="1">
          <mxGeometry x="560" y="60" width="50" height="100" as="geometry" />
        </mxCell>
        <mxCell id="9ln2qtu2F0F773BEIFo8-21" value="HistoryService" style="swimlane;whiteSpace=wrap;html=1;" parent="1" vertex="1">
          <mxGeometry x="360" y="360" width="720" height="440" as="geometry" />
        </mxCell>
        <mxCell id="9ln2qtu2F0F773BEIFo8-24" value="Record Change" style="rounded=0;whiteSpace=wrap;html=1;fillColor=#60a917;fontColor=#ffffff;strokeColor=#2D7600;" parent="9ln2qtu2F0F773BEIFo8-21" vertex="1">
          <mxGeometry x="40" y="120" width="160" height="60" as="geometry" />
        </mxCell>
        <mxCell id="9ln2qtu2F0F773BEIFo8-77" value="Undo Change" style="rounded=0;whiteSpace=wrap;html=1;fillColor=#a20025;fontColor=#ffffff;strokeColor=#6F0000;" parent="9ln2qtu2F0F773BEIFo8-21" vertex="1">
          <mxGeometry x="280" y="40" width="160" height="60" as="geometry" />
        </mxCell>
        <mxCell id="9ln2qtu2F0F773BEIFo8-79" value="Redo Change" style="rounded=0;whiteSpace=wrap;html=1;fillColor=#1ba1e2;fontColor=#ffffff;strokeColor=#006EAF;" parent="9ln2qtu2F0F773BEIFo8-21" vertex="1">
          <mxGeometry x="520" y="40" width="160" height="60" as="geometry" />
        </mxCell>
        <mxCell id="9ln2qtu2F0F773BEIFo8-87" style="edgeStyle=orthogonalEdgeStyle;rounded=0;orthogonalLoop=1;jettySize=auto;html=1;entryX=0;entryY=1;entryDx=0;entryDy=0;fillColor=#1ba1e2;strokeColor=#006EAF;strokeWidth=3;jumpStyle=arc;jumpSize=10;startArrow=halfCircle;startFill=0;endArrow=block;endFill=0;targetPerimeterSpacing=0;startSize=4;" parent="9ln2qtu2F0F773BEIFo8-21" source="9ln2qtu2F0F773BEIFo8-40" target="9ln2qtu2F0F773BEIFo8-79" edge="1">
          <mxGeometry relative="1" as="geometry">
            <Array as="points" />
          </mxGeometry>
        </mxCell>
        <mxCell id="9ln2qtu2F0F773BEIFo8-118" value="2: Pop&lt;br&gt;Future Entity" style="edgeLabel;html=1;align=center;verticalAlign=middle;resizable=0;points=[];" parent="9ln2qtu2F0F773BEIFo8-87" vertex="1" connectable="0">
          <mxGeometry x="0.7937" y="-2" relative="1" as="geometry">
            <mxPoint as="offset" />
          </mxGeometry>
        </mxCell>
        <mxCell id="9ln2qtu2F0F773BEIFo8-39" value="" style="group" parent="9ln2qtu2F0F773BEIFo8-21" vertex="1" connectable="0">
          <mxGeometry x="440" y="320" width="80" height="80" as="geometry" />
        </mxCell>
        <mxCell id="9ln2qtu2F0F773BEIFo8-40" value="&lt;br&gt;&lt;br&gt;&lt;br&gt;&lt;br&gt;&lt;br&gt;&lt;br&gt;Memory Stack&lt;br&gt;Redo Stack" style="rounded=0;whiteSpace=wrap;html=1;" parent="9ln2qtu2F0F773BEIFo8-39" vertex="1">
          <mxGeometry width="80" height="80" as="geometry" />
        </mxCell>
        <mxCell id="9ln2qtu2F0F773BEIFo8-41" value="" style="group" parent="9ln2qtu2F0F773BEIFo8-39" vertex="1" connectable="0">
          <mxGeometry x="5" y="5.833333333333333" width="70" height="60.833333333333336" as="geometry" />
        </mxCell>
        <mxCell id="9ln2qtu2F0F773BEIFo8-42" value="" style="rhombus;whiteSpace=wrap;html=1;" parent="9ln2qtu2F0F773BEIFo8-41" vertex="1">
          <mxGeometry x="8.333333333333334" y="34.166666666666664" width="53.333333333333336" height="26.666666666666668" as="geometry" />
        </mxCell>
        <mxCell id="9ln2qtu2F0F773BEIFo8-43" value="" style="rhombus;whiteSpace=wrap;html=1;" parent="9ln2qtu2F0F773BEIFo8-41" vertex="1">
          <mxGeometry x="8.333333333333334" y="27.5" width="53.333333333333336" height="26.666666666666668" as="geometry" />
        </mxCell>
        <mxCell id="9ln2qtu2F0F773BEIFo8-44" value="" style="rhombus;whiteSpace=wrap;html=1;" parent="9ln2qtu2F0F773BEIFo8-41" vertex="1">
          <mxGeometry x="8.333333333333334" y="20.833333333333332" width="53.333333333333336" height="26.666666666666668" as="geometry" />
        </mxCell>
        <mxCell id="9ln2qtu2F0F773BEIFo8-45" value="" style="html=1;shadow=0;dashed=0;align=center;verticalAlign=middle;shape=mxgraph.arrows2.jumpInArrow;dy=3.29;dx=14.08;arrowHead=21.75;rotation=0;" parent="9ln2qtu2F0F773BEIFo8-41" vertex="1">
          <mxGeometry x="39.166666666666664" width="30.833333333333332" height="34.166666666666664" as="geometry" />
        </mxCell>
        <mxCell id="9ln2qtu2F0F773BEIFo8-46" value="" style="html=1;shadow=0;dashed=0;align=center;verticalAlign=middle;shape=mxgraph.arrows2.jumpInArrow;dy=3.29;dx=14.08;arrowHead=21.75;rotation=90;" parent="9ln2qtu2F0F773BEIFo8-41" vertex="1">
          <mxGeometry x="1.6666666666666667" width="30.833333333333332" height="34.166666666666664" as="geometry" />
        </mxCell>
        <mxCell id="9ln2qtu2F0F773BEIFo8-113" style="rounded=0;orthogonalLoop=1;jettySize=auto;html=1;jumpStyle=arc;jumpSize=10;fillColor=#a20025;strokeColor=#6F0000;strokeWidth=3;exitX=0.25;exitY=1;exitDx=0;exitDy=0;entryX=0;entryY=0.5;entryDx=0;entryDy=0;edgeStyle=orthogonalEdgeStyle;startArrow=halfCircle;startFill=0;endArrow=block;endFill=0;targetPerimeterSpacing=0;startSize=4;" parent="9ln2qtu2F0F773BEIFo8-21" source="9ln2qtu2F0F773BEIFo8-77" target="9ln2qtu2F0F773BEIFo8-40" edge="1">
          <mxGeometry relative="1" as="geometry">
            <mxPoint x="-290" y="610" as="sourcePoint" />
            <mxPoint x="450" y="370" as="targetPoint" />
          </mxGeometry>
        </mxCell>
        <mxCell id="9ln2qtu2F0F773BEIFo8-114" value="3: Push Current&lt;br&gt;Entity to Redo" style="edgeLabel;html=1;align=center;verticalAlign=middle;resizable=0;points=[];" parent="9ln2qtu2F0F773BEIFo8-113" vertex="1" connectable="0">
          <mxGeometry x="-0.5316" y="-2" relative="1" as="geometry">
            <mxPoint x="2" y="-29" as="offset" />
          </mxGeometry>
        </mxCell>
        <mxCell id="9ln2qtu2F0F773BEIFo8-128" style="rounded=0;orthogonalLoop=1;jettySize=auto;html=1;exitX=0.75;exitY=1;exitDx=0;exitDy=0;jumpStyle=arc;jumpSize=9;fillColor=#60a917;strokeColor=#2D7600;strokeWidth=3;edgeStyle=orthogonalEdgeStyle;startArrow=halfCircle;startFill=0;endArrow=block;endFill=0;targetPerimeterSpacing=0;startSize=4;" parent="9ln2qtu2F0F773BEIFo8-21" source="9ln2qtu2F0F773BEIFo8-24" target="9ln2qtu2F0F773BEIFo8-40" edge="1">
          <mxGeometry relative="1" as="geometry">
            <mxPoint x="110" y="194" as="sourcePoint" />
            <mxPoint x="170" y="610" as="targetPoint" />
            <Array as="points">
              <mxPoint x="160" y="320" />
            </Array>
          </mxGeometry>
        </mxCell>
        <mxCell id="9ln2qtu2F0F773BEIFo8-129" value="5: Clear&lt;br&gt;Redo Stack" style="edgeLabel;html=1;align=center;verticalAlign=middle;resizable=0;points=[];" parent="9ln2qtu2F0F773BEIFo8-128" vertex="1" connectable="0">
          <mxGeometry x="-0.8876" y="-1" relative="1" as="geometry">
            <mxPoint y="90" as="offset" />
          </mxGeometry>
        </mxCell>
        <mxCell id="9ln2qtu2F0F773BEIFo8-136" value="💥💣" style="edgeLabel;html=1;align=center;verticalAlign=middle;resizable=0;points=[];" parent="9ln2qtu2F0F773BEIFo8-128" vertex="1" connectable="0">
          <mxGeometry x="0.9087" y="4" relative="1" as="geometry">
            <mxPoint x="-18" y="4" as="offset" />
          </mxGeometry>
        </mxCell>
        <mxCell id="9ln2qtu2F0F773BEIFo8-56" value="" style="group" parent="1" vertex="1" connectable="0">
          <mxGeometry x="1560" y="1080" width="80" height="80" as="geometry" />
        </mxCell>
        <mxCell id="9ln2qtu2F0F773BEIFo8-57" value="&lt;br&gt;&lt;br&gt;&lt;br&gt;&lt;br&gt;&lt;br&gt;Stack" style="rounded=0;whiteSpace=wrap;html=1;" parent="9ln2qtu2F0F773BEIFo8-56" vertex="1">
          <mxGeometry width="80" height="80" as="geometry" />
        </mxCell>
        <mxCell id="9ln2qtu2F0F773BEIFo8-58" value="" style="group" parent="9ln2qtu2F0F773BEIFo8-56" vertex="1" connectable="0">
          <mxGeometry x="5" y="5.833333333333333" width="70" height="60.833333333333336" as="geometry" />
        </mxCell>
        <mxCell id="9ln2qtu2F0F773BEIFo8-59" value="" style="rhombus;whiteSpace=wrap;html=1;" parent="9ln2qtu2F0F773BEIFo8-58" vertex="1">
          <mxGeometry x="8.333333333333334" y="34.166666666666664" width="53.333333333333336" height="26.666666666666668" as="geometry" />
        </mxCell>
        <mxCell id="9ln2qtu2F0F773BEIFo8-60" value="" style="rhombus;whiteSpace=wrap;html=1;" parent="9ln2qtu2F0F773BEIFo8-58" vertex="1">
          <mxGeometry x="8.333333333333334" y="27.5" width="53.333333333333336" height="26.666666666666668" as="geometry" />
        </mxCell>
        <mxCell id="9ln2qtu2F0F773BEIFo8-61" value="" style="rhombus;whiteSpace=wrap;html=1;" parent="9ln2qtu2F0F773BEIFo8-58" vertex="1">
          <mxGeometry x="8.333333333333334" y="20.833333333333332" width="53.333333333333336" height="26.666666666666668" as="geometry" />
        </mxCell>
        <mxCell id="9ln2qtu2F0F773BEIFo8-62" value="" style="html=1;shadow=0;dashed=0;align=center;verticalAlign=middle;shape=mxgraph.arrows2.jumpInArrow;dy=3.29;dx=14.08;arrowHead=21.75;rotation=0;" parent="9ln2qtu2F0F773BEIFo8-58" vertex="1">
          <mxGeometry x="39.166666666666664" width="30.833333333333332" height="34.166666666666664" as="geometry" />
        </mxCell>
        <mxCell id="9ln2qtu2F0F773BEIFo8-63" value="" style="html=1;shadow=0;dashed=0;align=center;verticalAlign=middle;shape=mxgraph.arrows2.jumpInArrow;dy=3.29;dx=14.08;arrowHead=21.75;rotation=90;" parent="9ln2qtu2F0F773BEIFo8-58" vertex="1">
          <mxGeometry x="1.6666666666666667" width="30.833333333333332" height="34.166666666666664" as="geometry" />
        </mxCell>
        <mxCell id="9ln2qtu2F0F773BEIFo8-64" style="edgeStyle=orthogonalEdgeStyle;rounded=0;orthogonalLoop=1;jettySize=auto;html=1;exitX=0.5;exitY=1;exitDx=0;exitDy=0;jumpStyle=arc;jumpSize=9;entryX=0.25;entryY=0;entryDx=0;entryDy=0;fillColor=#60a917;strokeColor=#2D7600;strokeWidth=3;startArrow=halfCircle;startFill=0;endArrow=block;endFill=0;targetPerimeterSpacing=0;startSize=4;" parent="1" source="9ln2qtu2F0F773BEIFo8-24" target="9ln2qtu2F0F773BEIFo8-26" edge="1">
          <mxGeometry relative="1" as="geometry">
            <Array as="points">
              <mxPoint x="480" y="760" />
              <mxPoint x="540" y="760" />
            </Array>
          </mxGeometry>
        </mxCell>
        <mxCell id="9ln2qtu2F0F773BEIFo8-97" value="4: Push Old&lt;br&gt;Entity to Undo" style="edgeLabel;html=1;align=center;verticalAlign=middle;resizable=0;points=[];" parent="9ln2qtu2F0F773BEIFo8-64" vertex="1" connectable="0">
          <mxGeometry x="-0.8876" y="-1" relative="1" as="geometry">
            <mxPoint x="1" y="53" as="offset" />
          </mxGeometry>
        </mxCell>
        <mxCell id="9ln2qtu2F0F773BEIFo8-65" value="" style="endArrow=none;html=1;rounded=0;exitX=0;exitY=0;exitDx=0;exitDy=0;entryX=1;entryY=0.5;entryDx=0;entryDy=0;entryPerimeter=0;" parent="1" source="9ln2qtu2F0F773BEIFo8-26" target="9ln2qtu2F0F773BEIFo8-4" edge="1">
          <mxGeometry width="50" height="50" relative="1" as="geometry">
            <mxPoint x="720" y="650" as="sourcePoint" />
            <mxPoint x="770" y="600" as="targetPoint" />
          </mxGeometry>
        </mxCell>
        <mxCell id="9ln2qtu2F0F773BEIFo8-66" value="" style="endArrow=none;html=1;rounded=0;entryX=1;entryY=1;entryDx=0;entryDy=0;exitX=1;exitY=1;exitDx=0;exitDy=-15;exitPerimeter=0;" parent="1" source="9ln2qtu2F0F773BEIFo8-4" target="9ln2qtu2F0F773BEIFo8-26" edge="1">
          <mxGeometry width="50" height="50" relative="1" as="geometry">
            <mxPoint x="720" y="650" as="sourcePoint" />
            <mxPoint x="770" y="600" as="targetPoint" />
          </mxGeometry>
        </mxCell>
        <mxCell id="9ln2qtu2F0F773BEIFo8-26" value="Undo History" style="shape=internalStorage;whiteSpace=wrap;html=1;backgroundOutline=1;" parent="1" vertex="1">
          <mxGeometry x="520" y="960" width="80" height="80" as="geometry" />
        </mxCell>
        <mxCell id="9ln2qtu2F0F773BEIFo8-70" style="edgeStyle=orthogonalEdgeStyle;rounded=0;orthogonalLoop=1;jettySize=auto;html=1;entryX=0.5;entryY=0;entryDx=0;entryDy=0;fillColor=#60a917;strokeColor=#2D7600;strokeWidth=3;startArrow=halfCircle;startFill=0;endArrow=block;endFill=0;targetPerimeterSpacing=0;startSize=4;" parent="1" source="9ln2qtu2F0F773BEIFo8-22" target="9ln2qtu2F0F773BEIFo8-24" edge="1">
          <mxGeometry relative="1" as="geometry">
            <Array as="points">
              <mxPoint x="300" y="560" />
              <mxPoint x="300" y="460" />
              <mxPoint x="480" y="460" />
            </Array>
          </mxGeometry>
        </mxCell>
        <mxCell id="9ln2qtu2F0F773BEIFo8-75" value="Yes" style="edgeLabel;html=1;align=center;verticalAlign=middle;resizable=0;points=[];" parent="9ln2qtu2F0F773BEIFo8-70" vertex="1" connectable="0">
          <mxGeometry x="-0.9389" y="-3" relative="1" as="geometry">
            <mxPoint x="20" y="-3" as="offset" />
          </mxGeometry>
        </mxCell>
        <mxCell id="9ln2qtu2F0F773BEIFo8-71" style="edgeStyle=orthogonalEdgeStyle;rounded=0;orthogonalLoop=1;jettySize=auto;html=1;exitX=0.25;exitY=1;exitDx=0;exitDy=0;entryX=0.5;entryY=0;entryDx=0;entryDy=0;fillColor=#60a917;strokeColor=#2D7600;strokeWidth=3;startArrow=halfCircle;startFill=0;endArrow=block;endFill=0;targetPerimeterSpacing=0;startSize=4;" parent="1" source="9ln2qtu2F0F773BEIFo8-24" target="9ln2qtu2F0F773BEIFo8-72" edge="1">
          <mxGeometry relative="1" as="geometry">
            <mxPoint x="40" y="640" as="targetPoint" />
            <Array as="points">
              <mxPoint x="440" y="660" />
              <mxPoint x="200" y="660" />
            </Array>
          </mxGeometry>
        </mxCell>
        <mxCell id="9ln2qtu2F0F773BEIFo8-98" value="6: Save&lt;br&gt;New Entity" style="edgeLabel;html=1;align=center;verticalAlign=middle;resizable=0;points=[];" parent="9ln2qtu2F0F773BEIFo8-71" vertex="1" connectable="0">
          <mxGeometry x="-0.9473" y="-4" relative="1" as="geometry">
            <mxPoint x="4" y="31" as="offset" />
          </mxGeometry>
        </mxCell>
        <mxCell id="9ln2qtu2F0F773BEIFo8-76" style="edgeStyle=orthogonalEdgeStyle;rounded=0;orthogonalLoop=1;jettySize=auto;html=1;exitX=0.5;exitY=1;exitDx=0;exitDy=0;fillColor=#60a917;strokeColor=#2D7600;strokeWidth=3;startArrow=halfCircle;startFill=0;endArrow=block;endFill=0;targetPerimeterSpacing=0;startSize=4;" parent="1" source="9ln2qtu2F0F773BEIFo8-72" target="9ln2qtu2F0F773BEIFo8-4" edge="1">
          <mxGeometry relative="1" as="geometry">
            <mxPoint x="-70" y="960" as="targetPoint" />
            <Array as="points">
              <mxPoint x="200" y="780" />
              <mxPoint x="240" y="780" />
            </Array>
          </mxGeometry>
        </mxCell>
        <mxCell id="9ln2qtu2F0F773BEIFo8-91" style="edgeStyle=orthogonalEdgeStyle;rounded=0;orthogonalLoop=1;jettySize=auto;html=1;fillColor=#a20025;strokeColor=#6F0000;strokeWidth=3;startArrow=halfCircle;startFill=0;endArrow=block;endFill=0;targetPerimeterSpacing=0;startSize=4;" parent="1" source="9ln2qtu2F0F773BEIFo8-84" target="9ln2qtu2F0F773BEIFo8-10" edge="1">
          <mxGeometry relative="1" as="geometry">
            <mxPoint x="1280" y="440" as="sourcePoint" />
            <mxPoint x="310" y="70" as="targetPoint" />
            <Array as="points">
              <mxPoint x="1200" y="120" />
            </Array>
          </mxGeometry>
        </mxCell>
        <mxCell id="9ln2qtu2F0F773BEIFo8-134" value="6: Render Changes" style="edgeLabel;html=1;align=center;verticalAlign=middle;resizable=0;points=[];" parent="9ln2qtu2F0F773BEIFo8-91" vertex="1" connectable="0">
          <mxGeometry x="0.8006" y="5" relative="1" as="geometry">
            <mxPoint x="14" as="offset" />
          </mxGeometry>
        </mxCell>
        <mxCell id="9ln2qtu2F0F773BEIFo8-92" style="edgeStyle=orthogonalEdgeStyle;rounded=0;orthogonalLoop=1;jettySize=auto;html=1;fillColor=#1ba1e2;strokeColor=#006EAF;strokeWidth=3;startArrow=halfCircle;startFill=0;endArrow=block;endFill=0;targetPerimeterSpacing=0;startSize=4;" parent="1" source="9ln2qtu2F0F773BEIFo8-84" target="9ln2qtu2F0F773BEIFo8-10" edge="1">
          <mxGeometry relative="1" as="geometry">
            <Array as="points">
              <mxPoint x="1240" y="80" />
            </Array>
          </mxGeometry>
        </mxCell>
        <mxCell id="9ln2qtu2F0F773BEIFo8-133" value="6: Render Changes" style="edgeLabel;html=1;align=center;verticalAlign=middle;resizable=0;points=[];" parent="9ln2qtu2F0F773BEIFo8-92" vertex="1" connectable="0">
          <mxGeometry x="0.799" y="1" relative="1" as="geometry">
            <mxPoint x="8" as="offset" />
          </mxGeometry>
        </mxCell>
        <mxCell id="9ln2qtu2F0F773BEIFo8-84" value="MediatR" style="rounded=1;whiteSpace=wrap;html=1;" parent="1" vertex="1">
          <mxGeometry x="1160" y="560" width="120" height="120" as="geometry" />
        </mxCell>
        <mxCell id="9ln2qtu2F0F773BEIFo8-85" style="edgeStyle=orthogonalEdgeStyle;rounded=0;orthogonalLoop=1;jettySize=auto;html=1;exitX=0.75;exitY=1;exitDx=0;exitDy=0;fillColor=#a20025;strokeColor=#6F0000;strokeWidth=3;startArrow=halfCircle;startFill=0;endArrow=block;endFill=0;targetPerimeterSpacing=0;startSize=4;" parent="1" source="9ln2qtu2F0F773BEIFo8-77" target="9ln2qtu2F0F773BEIFo8-84" edge="1">
          <mxGeometry relative="1" as="geometry">
            <Array as="points">
              <mxPoint x="760" y="640" />
            </Array>
          </mxGeometry>
        </mxCell>
        <mxCell id="9ln2qtu2F0F773BEIFo8-117" value="5: Publish Entity&lt;br&gt;Changes" style="edgeLabel;html=1;align=center;verticalAlign=middle;resizable=0;points=[];" parent="9ln2qtu2F0F773BEIFo8-85" vertex="1" connectable="0">
          <mxGeometry x="-0.5339" y="-3" relative="1" as="geometry">
            <mxPoint x="3" y="9" as="offset" />
          </mxGeometry>
        </mxCell>
        <mxCell id="9ln2qtu2F0F773BEIFo8-86" style="edgeStyle=orthogonalEdgeStyle;rounded=0;orthogonalLoop=1;jettySize=auto;html=1;exitX=0.75;exitY=1;exitDx=0;exitDy=0;fillColor=#1ba1e2;strokeColor=#006EAF;strokeWidth=3;jumpStyle=arc;jumpSize=10;startArrow=halfCircle;startFill=0;endArrow=block;endFill=0;targetPerimeterSpacing=0;startSize=4;" parent="1" source="9ln2qtu2F0F773BEIFo8-79" target="9ln2qtu2F0F773BEIFo8-84" edge="1">
          <mxGeometry relative="1" as="geometry">
            <Array as="points">
              <mxPoint x="1000" y="600" />
            </Array>
          </mxGeometry>
        </mxCell>
        <mxCell id="9ln2qtu2F0F773BEIFo8-127" value="5: Publish Entity&lt;br&gt;Changse" style="edgeLabel;html=1;align=center;verticalAlign=middle;resizable=0;points=[];" parent="9ln2qtu2F0F773BEIFo8-86" vertex="1" connectable="0">
          <mxGeometry x="-0.759" relative="1" as="geometry">
            <mxPoint as="offset" />
          </mxGeometry>
        </mxCell>
        <mxCell id="9ln2qtu2F0F773BEIFo8-106" style="rounded=0;orthogonalLoop=1;jettySize=auto;html=1;jumpStyle=arc;jumpSize=10;fillColor=#a20025;strokeColor=#6F0000;strokeWidth=3;edgeStyle=orthogonalEdgeStyle;exitX=0.5;exitY=0;exitDx=0;exitDy=0;entryX=0;entryY=1;entryDx=0;entryDy=0;startArrow=halfCircle;startFill=0;endArrow=block;endFill=0;targetPerimeterSpacing=0;startSize=4;" parent="1" source="9ln2qtu2F0F773BEIFo8-26" target="9ln2qtu2F0F773BEIFo8-77" edge="1">
          <mxGeometry relative="1" as="geometry">
            <mxPoint x="110" y="1010" as="sourcePoint" />
            <mxPoint x="850" y="770" as="targetPoint" />
            <Array as="points">
              <mxPoint x="560" y="760" />
              <mxPoint x="640" y="760" />
            </Array>
          </mxGeometry>
        </mxCell>
        <mxCell id="9ln2qtu2F0F773BEIFo8-107" value="2: Pop&lt;br&gt;Last Entity" style="edgeLabel;html=1;align=center;verticalAlign=middle;resizable=0;points=[];" parent="9ln2qtu2F0F773BEIFo8-106" vertex="1" connectable="0">
          <mxGeometry x="0.8859" y="1" relative="1" as="geometry">
            <mxPoint x="1" y="-4" as="offset" />
          </mxGeometry>
        </mxCell>
        <mxCell id="9ln2qtu2F0F773BEIFo8-109" style="rounded=0;orthogonalLoop=1;jettySize=auto;html=1;jumpStyle=arc;jumpSize=10;fillColor=#a20025;strokeColor=#6F0000;strokeWidth=3;edgeStyle=orthogonalEdgeStyle;startArrow=halfCircle;startFill=0;endArrow=block;endFill=0;targetPerimeterSpacing=0;startSize=4;" parent="1" source="9ln2qtu2F0F773BEIFo8-4" target="9ln2qtu2F0F773BEIFo8-40" edge="1">
          <mxGeometry relative="1" as="geometry">
            <mxPoint x="550" y="890" as="sourcePoint" />
            <mxPoint x="650" y="470" as="targetPoint" />
            <Array as="points">
              <mxPoint x="260" y="840" />
              <mxPoint x="680" y="840" />
              <mxPoint x="680" y="720" />
            </Array>
          </mxGeometry>
        </mxCell>
        <mxCell id="9ln2qtu2F0F773BEIFo8-115" style="edgeStyle=orthogonalEdgeStyle;rounded=0;orthogonalLoop=1;jettySize=auto;html=1;exitX=0.5;exitY=1;exitDx=0;exitDy=0;fillColor=#a20025;strokeColor=#6F0000;strokeWidth=3;jumpStyle=arc;jumpSize=10;startArrow=halfCircle;startFill=0;endArrow=block;endFill=0;targetPerimeterSpacing=0;startSize=4;" parent="1" source="9ln2qtu2F0F773BEIFo8-77" target="9ln2qtu2F0F773BEIFo8-4" edge="1">
          <mxGeometry relative="1" as="geometry">
            <Array as="points">
              <mxPoint x="720" y="860" />
              <mxPoint x="280" y="860" />
            </Array>
          </mxGeometry>
        </mxCell>
        <mxCell id="9ln2qtu2F0F773BEIFo8-116" value="4: Load&lt;br&gt;Old Entity&lt;br&gt;to Database" style="edgeLabel;html=1;align=center;verticalAlign=middle;resizable=0;points=[];" parent="9ln2qtu2F0F773BEIFo8-115" vertex="1" connectable="0">
          <mxGeometry x="-0.7228" y="-2" relative="1" as="geometry">
            <mxPoint x="2" y="-47" as="offset" />
          </mxGeometry>
        </mxCell>
        <mxCell id="9ln2qtu2F0F773BEIFo8-121" style="edgeStyle=orthogonalEdgeStyle;rounded=0;orthogonalLoop=1;jettySize=auto;html=1;exitX=0.25;exitY=1;exitDx=0;exitDy=0;fillColor=#1ba1e2;strokeColor=#006EAF;strokeWidth=3;jumpStyle=arc;jumpSize=10;entryX=0.75;entryY=0;entryDx=0;entryDy=0;startArrow=halfCircle;startFill=0;endArrow=block;endFill=0;targetPerimeterSpacing=0;startSize=4;" parent="1" source="9ln2qtu2F0F773BEIFo8-79" target="9ln2qtu2F0F773BEIFo8-26" edge="1">
          <mxGeometry relative="1" as="geometry">
            <mxPoint x="870" y="590" as="sourcePoint" />
            <mxPoint x="630" y="940" as="targetPoint" />
            <Array as="points">
              <mxPoint x="920" y="880" />
              <mxPoint x="580" y="880" />
            </Array>
          </mxGeometry>
        </mxCell>
        <mxCell id="9ln2qtu2F0F773BEIFo8-123" value="3: Push Current&lt;br&gt;Entity to Redo" style="edgeLabel;html=1;align=center;verticalAlign=middle;resizable=0;points=[];" parent="9ln2qtu2F0F773BEIFo8-121" vertex="1" connectable="0">
          <mxGeometry x="-0.8341" y="1" relative="1" as="geometry">
            <mxPoint y="-14" as="offset" />
          </mxGeometry>
        </mxCell>
        <mxCell id="9ln2qtu2F0F773BEIFo8-122" style="edgeStyle=orthogonalEdgeStyle;rounded=0;orthogonalLoop=1;jettySize=auto;html=1;entryX=0.75;entryY=0;entryDx=0;entryDy=0;fillColor=#1ba1e2;strokeColor=#006EAF;strokeWidth=3;jumpStyle=arc;jumpSize=10;startArrow=halfCircle;startFill=0;endArrow=block;endFill=0;" parent="1" source="9ln2qtu2F0F773BEIFo8-4" target="9ln2qtu2F0F773BEIFo8-26" edge="1">
          <mxGeometry relative="1" as="geometry">
            <mxPoint x="1030" y="490" as="sourcePoint" />
            <mxPoint x="1190" y="590" as="targetPoint" />
            <Array as="points">
              <mxPoint x="300" y="880" />
              <mxPoint x="580" y="880" />
            </Array>
          </mxGeometry>
        </mxCell>
        <mxCell id="9ln2qtu2F0F773BEIFo8-125" style="edgeStyle=orthogonalEdgeStyle;rounded=0;orthogonalLoop=1;jettySize=auto;html=1;exitX=0.5;exitY=1;exitDx=0;exitDy=0;fillColor=#1ba1e2;strokeColor=#006EAF;strokeWidth=3;jumpStyle=arc;jumpSize=10;startArrow=halfCircle;startFill=0;endArrow=block;endFill=0;targetPerimeterSpacing=0;startSize=4;" parent="1" source="9ln2qtu2F0F773BEIFo8-79" target="9ln2qtu2F0F773BEIFo8-4" edge="1">
          <mxGeometry relative="1" as="geometry">
            <mxPoint x="1140" y="710" as="sourcePoint" />
            <mxPoint x="1300" y="810" as="targetPoint" />
            <Array as="points">
              <mxPoint x="960" y="900" />
              <mxPoint x="320" y="900" />
            </Array>
          </mxGeometry>
        </mxCell>
        <mxCell id="9ln2qtu2F0F773BEIFo8-126" value="4: Load&lt;br&gt;Future Entity&lt;br&gt;to Database" style="edgeLabel;html=1;align=center;verticalAlign=middle;resizable=0;points=[];" parent="9ln2qtu2F0F773BEIFo8-125" vertex="1" connectable="0">
          <mxGeometry x="-0.8629" y="1" relative="1" as="geometry">
            <mxPoint x="-1" y="9" as="offset" />
          </mxGeometry>
        </mxCell>
        <mxCell id="A9959ahAjB74p4_Hsj6h-1" value="&lt;h1&gt;History Service&lt;/h1&gt;&lt;p&gt;&lt;/p&gt;&lt;ul&gt;&lt;li&gt;Records New History&lt;/li&gt;&lt;li&gt;Undoes changes and savse redo-history&lt;/li&gt;&lt;li&gt;Redoes changes and save undo-history&lt;/li&gt;&lt;/ul&gt;&lt;div&gt;Article about undo-redo in old EF Here:&lt;/div&gt;&lt;div&gt;https://www.codeproject.com/Articles/474279/Implementing-Undo-Redo-feature-for-DbContext-of-En&lt;br&gt;&lt;/div&gt;&lt;p&gt;&lt;/p&gt;" style="text;html=1;strokeColor=none;fillColor=none;spacing=5;spacingTop=-20;whiteSpace=wrap;overflow=hidden;rounded=0;" parent="1" vertex="1">
          <mxGeometry x="40" y="40" width="440" height="160" as="geometry" />
        </mxCell>
      </root>
    </mxGraphModel>
  </diagram>
  <diagram id="MKh_RI_jlUH5WbCtPA0M" name="Rendering and Culling">
    <mxGraphModel dx="1434" dy="854" grid="1" gridSize="10" guides="1" tooltips="1" connect="1" arrows="1" fold="1" page="1" pageScale="1" pageWidth="827" pageHeight="1169" math="0" shadow="0">
      <root>
        <mxCell id="0" />
        <mxCell id="1" parent="0" />
        <mxCell id="J-ktD6FrpKtYXj1IKdOK-99" value="" style="rhombus;whiteSpace=wrap;html=1;fillColor=#a20025;fontColor=#ffffff;strokeColor=#6F0000;fillStyle=zigzag-line;" parent="1" vertex="1">
          <mxGeometry x="1240" y="920" width="320" height="160" as="geometry" />
        </mxCell>
        <mxCell id="J-ktD6FrpKtYXj1IKdOK-63" value="" style="rhombus;whiteSpace=wrap;html=1;fillColor=#f0a30a;strokeColor=#BD7000;fillStyle=solid;fontColor=#000000;strokeWidth=1;perimeterSpacing=0;gradientColor=default;gradientDirection=south;" parent="1" vertex="1">
          <mxGeometry x="840" y="540" width="320" height="160" as="geometry" />
        </mxCell>
        <mxCell id="J-ktD6FrpKtYXj1IKdOK-64" value="" style="rhombus;whiteSpace=wrap;html=1;fillColor=none;dashed=1;dashPattern=1 1;strokeWidth=3;strokeColor=#9673a6;" parent="1" vertex="1">
          <mxGeometry x="880" y="560" width="240" height="120" as="geometry" />
        </mxCell>
        <mxCell id="J-ktD6FrpKtYXj1IKdOK-61" value="" style="rhombus;whiteSpace=wrap;html=1;fillColor=#f0a30a;strokeColor=#BD7000;fillStyle=solid;fontColor=#000000;strokeWidth=1;perimeterSpacing=0;gradientColor=default;gradientDirection=south;" parent="1" vertex="1">
          <mxGeometry x="1240" y="540" width="320" height="160" as="geometry" />
        </mxCell>
        <mxCell id="J-ktD6FrpKtYXj1IKdOK-62" value="" style="rhombus;whiteSpace=wrap;html=1;fillColor=none;dashed=1;dashPattern=1 1;strokeWidth=3;strokeColor=#9673a6;" parent="1" vertex="1">
          <mxGeometry x="1280" y="560" width="240" height="120" as="geometry" />
        </mxCell>
        <mxCell id="J-ktD6FrpKtYXj1IKdOK-13" value="" style="rhombus;whiteSpace=wrap;html=1;fillColor=#f0a30a;strokeColor=#BD7000;fillStyle=solid;fontColor=#000000;strokeWidth=1;perimeterSpacing=0;gradientColor=default;gradientDirection=south;" parent="1" vertex="1">
          <mxGeometry x="840" y="260" width="320" height="160" as="geometry" />
        </mxCell>
        <mxCell id="tltddQSWYgR9SDuKubqb-11" value="" style="rhombus;whiteSpace=wrap;html=1;" parent="1" vertex="1">
          <mxGeometry x="120" y="280" width="480" height="240" as="geometry" />
        </mxCell>
        <mxCell id="tltddQSWYgR9SDuKubqb-5" value="&lt;br&gt;&lt;br&gt;&lt;br&gt;Old Region" style="rhombus;whiteSpace=wrap;html=1;fillColor=#a20025;fontColor=#ffffff;strokeColor=#6F0000;" parent="1" vertex="1">
          <mxGeometry x="300" y="350" width="160" height="80" as="geometry" />
        </mxCell>
        <mxCell id="tltddQSWYgR9SDuKubqb-6" value="&lt;br&gt;&lt;br&gt;New Region&amp;nbsp; &amp;nbsp; &amp;nbsp;&amp;nbsp;" style="rhombus;whiteSpace=wrap;html=1;fillColor=#60a917;fontColor=#ffffff;strokeColor=#2D7600;" parent="1" vertex="1">
          <mxGeometry x="220" y="350" width="160" height="80" as="geometry" />
        </mxCell>
        <mxCell id="tltddQSWYgR9SDuKubqb-1" value="" style="html=1;verticalLabelPosition=bottom;align=center;labelBackgroundColor=#ffffff;verticalAlign=top;strokeWidth=2;strokeColor=#0080F0;shadow=0;dashed=0;shape=mxgraph.ios7.icons.camera;" parent="1" vertex="1">
          <mxGeometry x="240" y="200" width="68.97" height="40" as="geometry" />
        </mxCell>
        <mxCell id="tltddQSWYgR9SDuKubqb-14" value="" style="endArrow=none;dashed=1;html=1;rounded=0;exitX=0.5;exitY=0;exitDx=0;exitDy=0;strokeWidth=3;" parent="1" source="tltddQSWYgR9SDuKubqb-6" target="tltddQSWYgR9SDuKubqb-1" edge="1">
          <mxGeometry width="50" height="50" relative="1" as="geometry">
            <mxPoint x="470" y="330" as="sourcePoint" />
            <mxPoint x="520" y="280" as="targetPoint" />
          </mxGeometry>
        </mxCell>
        <mxCell id="tltddQSWYgR9SDuKubqb-15" value="" style="endArrow=none;dashed=1;html=1;rounded=0;exitX=0;exitY=0.5;exitDx=0;exitDy=0;strokeWidth=3;" parent="1" source="tltddQSWYgR9SDuKubqb-6" target="tltddQSWYgR9SDuKubqb-1" edge="1">
          <mxGeometry width="50" height="50" relative="1" as="geometry">
            <mxPoint x="170" y="330" as="sourcePoint" />
            <mxPoint x="460" y="214" as="targetPoint" />
          </mxGeometry>
        </mxCell>
        <mxCell id="tltddQSWYgR9SDuKubqb-16" value="" style="endArrow=none;dashed=1;html=1;rounded=0;exitX=0.5;exitY=1;exitDx=0;exitDy=0;strokeWidth=3;" parent="1" source="tltddQSWYgR9SDuKubqb-6" target="tltddQSWYgR9SDuKubqb-1" edge="1">
          <mxGeometry width="50" height="50" relative="1" as="geometry">
            <mxPoint x="130" y="350" as="sourcePoint" />
            <mxPoint x="460" y="214" as="targetPoint" />
          </mxGeometry>
        </mxCell>
        <mxCell id="tltddQSWYgR9SDuKubqb-17" value="" style="endArrow=none;dashed=1;html=1;rounded=0;exitX=1;exitY=0.5;exitDx=0;exitDy=0;strokeWidth=3;" parent="1" source="tltddQSWYgR9SDuKubqb-6" target="tltddQSWYgR9SDuKubqb-1" edge="1">
          <mxGeometry width="50" height="50" relative="1" as="geometry">
            <mxPoint x="170" y="370" as="sourcePoint" />
            <mxPoint x="470" y="224" as="targetPoint" />
          </mxGeometry>
        </mxCell>
        <mxCell id="tltddQSWYgR9SDuKubqb-19" value="Still Visible" style="rhombus;whiteSpace=wrap;html=1;fillColor=#f0a30a;fontColor=#000000;strokeColor=#BD7000;" parent="1" vertex="1">
          <mxGeometry x="300" y="370" width="80" height="40" as="geometry" />
        </mxCell>
        <mxCell id="tltddQSWYgR9SDuKubqb-20" value="Datastore" style="strokeWidth=2;html=1;shape=mxgraph.flowchart.database;whiteSpace=wrap;" parent="1" vertex="1">
          <mxGeometry x="520" y="480" width="80" height="80" as="geometry" />
        </mxCell>
        <mxCell id="tltddQSWYgR9SDuKubqb-21" value="Release" style="endArrow=classic;html=1;strokeWidth=3;fillColor=#a20025;strokeColor=#6F0000;curved=1;" parent="1" source="tltddQSWYgR9SDuKubqb-5" target="-oQG__LQGK0Vm4bocmLm-3" edge="1">
          <mxGeometry x="0.2657" y="-28" width="50" height="50" relative="1" as="geometry">
            <mxPoint x="550" y="260" as="sourcePoint" />
            <mxPoint x="690" y="340" as="targetPoint" />
            <Array as="points">
              <mxPoint x="550" y="310" />
            </Array>
            <mxPoint as="offset" />
          </mxGeometry>
        </mxCell>
        <mxCell id="tltddQSWYgR9SDuKubqb-22" value="Fetch" style="endArrow=classic;html=1;strokeWidth=3;fillColor=#60a917;strokeColor=#2D7600;curved=1;" parent="1" source="tltddQSWYgR9SDuKubqb-20" target="tltddQSWYgR9SDuKubqb-6" edge="1">
          <mxGeometry x="-0.2729" y="-10" width="50" height="50" relative="1" as="geometry">
            <mxPoint x="427" y="378" as="sourcePoint" />
            <mxPoint x="730" y="427" as="targetPoint" />
            <Array as="points">
              <mxPoint x="400" y="520" />
            </Array>
            <mxPoint as="offset" />
          </mxGeometry>
        </mxCell>
        <mxCell id="-oQG__LQGK0Vm4bocmLm-3" value="" style="html=1;verticalLabelPosition=bottom;align=center;labelBackgroundColor=#ffffff;verticalAlign=top;strokeWidth=2;strokeColor=#0080F0;shadow=0;dashed=0;shape=mxgraph.ios7.icons.trashcan;" parent="1" vertex="1">
          <mxGeometry x="640" y="400" width="40" height="40" as="geometry" />
        </mxCell>
        <mxCell id="ppyU6rdHz_iqeogAEO9q-9" style="edgeStyle=orthogonalEdgeStyle;rounded=0;orthogonalLoop=1;jettySize=auto;html=1;" parent="1" source="ppyU6rdHz_iqeogAEO9q-1" target="ppyU6rdHz_iqeogAEO9q-16" edge="1">
          <mxGeometry relative="1" as="geometry">
            <mxPoint x="140" y="770" as="targetPoint" />
          </mxGeometry>
        </mxCell>
        <mxCell id="ppyU6rdHz_iqeogAEO9q-1" value="Get Current Visible Area" style="rounded=0;whiteSpace=wrap;html=1;" parent="1" vertex="1">
          <mxGeometry x="80" y="600" width="120" height="60" as="geometry" />
        </mxCell>
        <mxCell id="ppyU6rdHz_iqeogAEO9q-11" style="edgeStyle=orthogonalEdgeStyle;rounded=0;orthogonalLoop=1;jettySize=auto;html=1;" parent="1" source="ppyU6rdHz_iqeogAEO9q-8" target="ppyU6rdHz_iqeogAEO9q-31" edge="1">
          <mxGeometry relative="1" as="geometry">
            <mxPoint x="140" y="1130" as="targetPoint" />
            <Array as="points" />
          </mxGeometry>
        </mxCell>
        <mxCell id="ppyU6rdHz_iqeogAEO9q-13" style="rounded=0;orthogonalLoop=1;jettySize=auto;html=1;exitX=1;exitY=0.75;exitDx=0;exitDy=0;" parent="1" source="ppyU6rdHz_iqeogAEO9q-8" target="ppyU6rdHz_iqeogAEO9q-10" edge="1">
          <mxGeometry relative="1" as="geometry">
            <mxPoint x="230" y="934.6666666666667" as="targetPoint" />
          </mxGeometry>
        </mxCell>
        <mxCell id="ppyU6rdHz_iqeogAEO9q-8" value="Geo-Query RodeNodes" style="rounded=0;whiteSpace=wrap;html=1;" parent="1" vertex="1">
          <mxGeometry x="80" y="920" width="120" height="60" as="geometry" />
        </mxCell>
        <mxCell id="ppyU6rdHz_iqeogAEO9q-14" style="rounded=0;orthogonalLoop=1;jettySize=auto;html=1;entryX=1;entryY=0.25;entryDx=0;entryDy=0;" parent="1" source="ppyU6rdHz_iqeogAEO9q-10" target="ppyU6rdHz_iqeogAEO9q-8" edge="1">
          <mxGeometry relative="1" as="geometry">
            <mxPoint x="250" y="940" as="sourcePoint" />
            <mxPoint x="200" y="940" as="targetPoint" />
          </mxGeometry>
        </mxCell>
        <mxCell id="ppyU6rdHz_iqeogAEO9q-10" value="Datastore" style="strokeWidth=2;html=1;shape=mxgraph.flowchart.database;whiteSpace=wrap;" parent="1" vertex="1">
          <mxGeometry x="220" y="920" width="60" height="60" as="geometry" />
        </mxCell>
        <mxCell id="ppyU6rdHz_iqeogAEO9q-16" value="Subtract Old Visible Area" style="rounded=0;whiteSpace=wrap;html=1;" parent="1" vertex="1">
          <mxGeometry x="80" y="760" width="120" height="60" as="geometry" />
        </mxCell>
        <mxCell id="ppyU6rdHz_iqeogAEO9q-17" style="edgeStyle=orthogonalEdgeStyle;rounded=0;orthogonalLoop=1;jettySize=auto;html=1;" parent="1" source="ppyU6rdHz_iqeogAEO9q-16" target="ppyU6rdHz_iqeogAEO9q-8" edge="1">
          <mxGeometry relative="1" as="geometry">
            <mxPoint x="150" y="670" as="sourcePoint" />
            <mxPoint x="150" y="770" as="targetPoint" />
          </mxGeometry>
        </mxCell>
        <mxCell id="ppyU6rdHz_iqeogAEO9q-4" value="New Entites" style="strokeWidth=2;html=1;shape=mxgraph.flowchart.multi-document;whiteSpace=wrap;" parent="1" vertex="1">
          <mxGeometry x="96" y="1000" width="88" height="60" as="geometry" />
        </mxCell>
        <mxCell id="ppyU6rdHz_iqeogAEO9q-31" value="Render" style="rounded=0;whiteSpace=wrap;html=1;" parent="1" vertex="1">
          <mxGeometry x="80" y="1080" width="120" height="60" as="geometry" />
        </mxCell>
        <mxCell id="ppyU6rdHz_iqeogAEO9q-34" value="Get Prior Visible Area" style="rounded=0;whiteSpace=wrap;html=1;" parent="1" vertex="1">
          <mxGeometry x="320" y="600" width="120" height="60" as="geometry" />
        </mxCell>
        <mxCell id="ppyU6rdHz_iqeogAEO9q-38" style="rounded=0;orthogonalLoop=1;jettySize=auto;html=1;entryX=0.75;entryY=0;entryDx=0;entryDy=0;exitX=0.25;exitY=1;exitDx=0;exitDy=0;jumpStyle=arc;jumpSize=10;" parent="1" source="ppyU6rdHz_iqeogAEO9q-34" target="ppyU6rdHz_iqeogAEO9q-16" edge="1">
          <mxGeometry relative="1" as="geometry">
            <mxPoint x="345" y="730" as="targetPoint" />
            <mxPoint x="195" y="630" as="sourcePoint" />
          </mxGeometry>
        </mxCell>
        <mxCell id="ppyU6rdHz_iqeogAEO9q-48" style="edgeStyle=orthogonalEdgeStyle;rounded=0;orthogonalLoop=1;jettySize=auto;html=1;" parent="1" source="ppyU6rdHz_iqeogAEO9q-41" target="ppyU6rdHz_iqeogAEO9q-47" edge="1">
          <mxGeometry relative="1" as="geometry" />
        </mxCell>
        <mxCell id="ppyU6rdHz_iqeogAEO9q-41" value="Get Non-Contained but Loaded Entites" style="rounded=0;whiteSpace=wrap;html=1;" parent="1" vertex="1">
          <mxGeometry x="320" y="760" width="120" height="60" as="geometry" />
        </mxCell>
        <mxCell id="ppyU6rdHz_iqeogAEO9q-47" value="Cull" style="rounded=0;whiteSpace=wrap;html=1;" parent="1" vertex="1">
          <mxGeometry x="320" y="920" width="120" height="60" as="geometry" />
        </mxCell>
        <mxCell id="ppyU6rdHz_iqeogAEO9q-49" value="Stale Entites" style="strokeWidth=2;html=1;shape=mxgraph.flowchart.multi-document;whiteSpace=wrap;" parent="1" vertex="1">
          <mxGeometry x="341" y="840" width="88" height="60" as="geometry" />
        </mxCell>
        <mxCell id="J-ktD6FrpKtYXj1IKdOK-4" style="rounded=0;orthogonalLoop=1;jettySize=auto;html=1;exitX=0.75;exitY=1;exitDx=0;exitDy=0;jumpStyle=arc;jumpSize=10;entryX=0.25;entryY=0;entryDx=0;entryDy=0;" parent="1" source="ppyU6rdHz_iqeogAEO9q-1" target="ppyU6rdHz_iqeogAEO9q-41" edge="1">
          <mxGeometry relative="1" as="geometry">
            <mxPoint x="342" y="770" as="targetPoint" />
            <mxPoint x="180" y="670" as="sourcePoint" />
          </mxGeometry>
        </mxCell>
        <mxCell id="J-ktD6FrpKtYXj1IKdOK-5" value="" style="group" parent="1" vertex="1" connectable="0">
          <mxGeometry x="270" y="670" width="60" height="50" as="geometry" />
        </mxCell>
        <mxCell id="ppyU6rdHz_iqeogAEO9q-39" value="" style="shape=cube;whiteSpace=wrap;html=1;boundedLbl=1;backgroundOutline=1;darkOpacity=0.05;darkOpacity2=0.1;size=20;fillColor=#a20025;strokeColor=#6F0000;fontColor=#ffffff;" parent="J-ktD6FrpKtYXj1IKdOK-5" vertex="1">
          <mxGeometry width="60" height="50" as="geometry" />
        </mxCell>
        <mxCell id="ppyU6rdHz_iqeogAEO9q-40" value="" style="shape=cube;whiteSpace=wrap;html=1;boundedLbl=1;backgroundOutline=1;darkOpacity=0.05;darkOpacity2=0.1;size=10;fillColor=#f0a30a;strokeColor=#BD7000;fontColor=#000000;" parent="J-ktD6FrpKtYXj1IKdOK-5" vertex="1">
          <mxGeometry x="10" y="10" width="30" height="40" as="geometry" />
        </mxCell>
        <mxCell id="J-ktD6FrpKtYXj1IKdOK-6" value="" style="group" parent="1" vertex="1" connectable="0">
          <mxGeometry x="110" y="680" width="60" height="50" as="geometry" />
        </mxCell>
        <mxCell id="ppyU6rdHz_iqeogAEO9q-28" value="" style="shape=cube;whiteSpace=wrap;html=1;boundedLbl=1;backgroundOutline=1;darkOpacity=0.05;darkOpacity2=0.1;size=20;fillColor=#60a917;strokeColor=#2D7600;fontColor=#ffffff;" parent="J-ktD6FrpKtYXj1IKdOK-6" vertex="1">
          <mxGeometry width="60" height="50" as="geometry" />
        </mxCell>
        <mxCell id="ppyU6rdHz_iqeogAEO9q-30" value="" style="shape=cube;whiteSpace=wrap;html=1;boundedLbl=1;backgroundOutline=1;darkOpacity=0.05;darkOpacity2=0.1;size=10;fillColor=#f0a30a;strokeColor=#BD7000;fontColor=#000000;" parent="J-ktD6FrpKtYXj1IKdOK-6" vertex="1">
          <mxGeometry x="10" y="10" width="30" height="40" as="geometry" />
        </mxCell>
        <mxCell id="J-ktD6FrpKtYXj1IKdOK-7" value="" style="group" parent="1" vertex="1" connectable="0">
          <mxGeometry x="110" y="840" width="59.99999999999997" height="50" as="geometry" />
        </mxCell>
        <mxCell id="ppyU6rdHz_iqeogAEO9q-24" value="" style="shape=cube;whiteSpace=wrap;html=1;boundedLbl=1;backgroundOutline=1;darkOpacity=0.05;darkOpacity2=0.1;size=10;fillColor=#60a917;strokeColor=#2D7600;fontColor=#ffffff;" parent="J-ktD6FrpKtYXj1IKdOK-7" vertex="1">
          <mxGeometry x="19.99999999999997" width="30" height="40" as="geometry" />
        </mxCell>
        <mxCell id="ppyU6rdHz_iqeogAEO9q-25" value="" style="shape=cube;whiteSpace=wrap;html=1;boundedLbl=1;backgroundOutline=1;darkOpacity=0.05;darkOpacity2=0.1;size=10;fillColor=#60a917;strokeColor=#2D7600;fontColor=#ffffff;" parent="J-ktD6FrpKtYXj1IKdOK-7" vertex="1">
          <mxGeometry width="30" height="40" as="geometry" />
        </mxCell>
        <mxCell id="ppyU6rdHz_iqeogAEO9q-27" value="" style="shape=cube;whiteSpace=wrap;html=1;boundedLbl=1;backgroundOutline=1;darkOpacity=0.05;darkOpacity2=0.1;size=10;fillColor=#60a917;strokeColor=#2D7600;fontColor=#ffffff;" parent="J-ktD6FrpKtYXj1IKdOK-7" vertex="1">
          <mxGeometry x="29.99999999999997" y="10" width="30" height="40" as="geometry" />
        </mxCell>
        <mxCell id="J-ktD6FrpKtYXj1IKdOK-8" value="" style="html=1;verticalLabelPosition=bottom;align=center;labelBackgroundColor=#ffffff;verticalAlign=top;strokeWidth=2;strokeColor=#0080F0;shadow=0;dashed=0;shape=mxgraph.ios7.icons.camera;" parent="1" vertex="1">
          <mxGeometry x="920" y="160" width="68.97" height="40" as="geometry" />
        </mxCell>
        <mxCell id="J-ktD6FrpKtYXj1IKdOK-10" value="" style="endArrow=none;html=1;rounded=0;exitX=0.5;exitY=0;exitDx=0;exitDy=0;strokeWidth=1;fillColor=#1ba1e2;strokeColor=#006EAF;" parent="1" source="J-ktD6FrpKtYXj1IKdOK-9" target="J-ktD6FrpKtYXj1IKdOK-8" edge="1">
          <mxGeometry width="50" height="50" relative="1" as="geometry">
            <mxPoint x="1380" y="260" as="sourcePoint" />
            <mxPoint x="1182" y="190" as="targetPoint" />
          </mxGeometry>
        </mxCell>
        <mxCell id="J-ktD6FrpKtYXj1IKdOK-11" value="" style="endArrow=none;html=1;rounded=0;exitX=0;exitY=0.5;exitDx=0;exitDy=0;strokeWidth=1;fillColor=#1ba1e2;strokeColor=#006EAF;" parent="1" source="J-ktD6FrpKtYXj1IKdOK-9" target="J-ktD6FrpKtYXj1IKdOK-8" edge="1">
          <mxGeometry width="50" height="50" relative="1" as="geometry">
            <mxPoint x="1080" y="260" as="sourcePoint" />
            <mxPoint x="1169" y="190" as="targetPoint" />
          </mxGeometry>
        </mxCell>
        <mxCell id="J-ktD6FrpKtYXj1IKdOK-12" value="" style="endArrow=none;html=1;rounded=0;exitX=1;exitY=0.5;exitDx=0;exitDy=0;strokeWidth=1;fillColor=#1ba1e2;strokeColor=#006EAF;" parent="1" source="J-ktD6FrpKtYXj1IKdOK-9" target="J-ktD6FrpKtYXj1IKdOK-8" edge="1">
          <mxGeometry width="50" height="50" relative="1" as="geometry">
            <mxPoint x="1080" y="300" as="sourcePoint" />
            <mxPoint x="1191" y="190" as="targetPoint" />
          </mxGeometry>
        </mxCell>
        <mxCell id="J-ktD6FrpKtYXj1IKdOK-16" value="" style="html=1;verticalLabelPosition=bottom;align=center;labelBackgroundColor=#ffffff;verticalAlign=top;strokeWidth=2;strokeColor=#0080F0;shadow=0;dashed=0;shape=mxgraph.ios7.icons.camera;" parent="1" vertex="1">
          <mxGeometry x="1320" y="160" width="68.97" height="40" as="geometry" />
        </mxCell>
        <mxCell id="J-ktD6FrpKtYXj1IKdOK-18" value="" style="endArrow=none;html=1;rounded=0;exitX=0.5;exitY=0;exitDx=0;exitDy=0;strokeWidth=1;fillColor=#1ba1e2;strokeColor=#006EAF;" parent="1" source="J-ktD6FrpKtYXj1IKdOK-17" target="J-ktD6FrpKtYXj1IKdOK-16" edge="1">
          <mxGeometry width="50" height="50" relative="1" as="geometry">
            <mxPoint x="1780" y="260" as="sourcePoint" />
            <mxPoint x="1582" y="190" as="targetPoint" />
          </mxGeometry>
        </mxCell>
        <mxCell id="J-ktD6FrpKtYXj1IKdOK-19" value="" style="endArrow=none;html=1;rounded=0;exitX=0;exitY=0.5;exitDx=0;exitDy=0;strokeWidth=1;fillColor=#1ba1e2;strokeColor=#006EAF;" parent="1" source="J-ktD6FrpKtYXj1IKdOK-17" target="J-ktD6FrpKtYXj1IKdOK-16" edge="1">
          <mxGeometry width="50" height="50" relative="1" as="geometry">
            <mxPoint x="1480" y="260" as="sourcePoint" />
            <mxPoint x="1569" y="190" as="targetPoint" />
          </mxGeometry>
        </mxCell>
        <mxCell id="J-ktD6FrpKtYXj1IKdOK-20" value="" style="endArrow=none;html=1;rounded=0;exitX=1;exitY=0.5;exitDx=0;exitDy=0;strokeWidth=1;fillColor=#1ba1e2;strokeColor=#006EAF;" parent="1" source="J-ktD6FrpKtYXj1IKdOK-17" target="J-ktD6FrpKtYXj1IKdOK-16" edge="1">
          <mxGeometry width="50" height="50" relative="1" as="geometry">
            <mxPoint x="1480" y="300" as="sourcePoint" />
            <mxPoint x="1591" y="190" as="targetPoint" />
          </mxGeometry>
        </mxCell>
        <mxCell id="J-ktD6FrpKtYXj1IKdOK-22" value="No Cull Update Needed" style="shape=flexArrow;endArrow=classic;html=1;rounded=0;endWidth=40.8;endSize=9.6;width=30.4;" parent="1" edge="1">
          <mxGeometry x="-0.1429" width="50" height="50" relative="1" as="geometry">
            <mxPoint x="1130" y="350" as="sourcePoint" />
            <mxPoint x="1270" y="350" as="targetPoint" />
            <mxPoint as="offset" />
          </mxGeometry>
        </mxCell>
        <mxCell id="J-ktD6FrpKtYXj1IKdOK-24" value="" style="html=1;verticalLabelPosition=bottom;align=center;labelBackgroundColor=#ffffff;verticalAlign=top;strokeWidth=2;strokeColor=#0080F0;shadow=0;dashed=0;shape=mxgraph.ios7.icons.camera;" parent="1" vertex="1">
          <mxGeometry x="921" y="440" width="68.97" height="40" as="geometry" />
        </mxCell>
        <mxCell id="J-ktD6FrpKtYXj1IKdOK-25" value="" style="rhombus;whiteSpace=wrap;html=1;strokeColor=#006EAF;fillStyle=zigzag-line;fillColor=#1ba1e2;fontColor=#ffffff;" parent="1" vertex="1">
          <mxGeometry x="920" y="580" width="160" height="80" as="geometry" />
        </mxCell>
        <mxCell id="J-ktD6FrpKtYXj1IKdOK-26" value="" style="endArrow=none;html=1;rounded=0;exitX=0.5;exitY=0;exitDx=0;exitDy=0;strokeWidth=1;fillColor=#1ba1e2;strokeColor=#006EAF;" parent="1" source="J-ktD6FrpKtYXj1IKdOK-25" target="J-ktD6FrpKtYXj1IKdOK-24" edge="1">
          <mxGeometry width="50" height="50" relative="1" as="geometry">
            <mxPoint x="1381" y="540" as="sourcePoint" />
            <mxPoint x="1183" y="470" as="targetPoint" />
          </mxGeometry>
        </mxCell>
        <mxCell id="J-ktD6FrpKtYXj1IKdOK-27" value="" style="endArrow=none;html=1;rounded=0;exitX=0;exitY=0.5;exitDx=0;exitDy=0;strokeWidth=1;fillColor=#1ba1e2;strokeColor=#006EAF;" parent="1" source="J-ktD6FrpKtYXj1IKdOK-25" target="J-ktD6FrpKtYXj1IKdOK-24" edge="1">
          <mxGeometry width="50" height="50" relative="1" as="geometry">
            <mxPoint x="1081" y="540" as="sourcePoint" />
            <mxPoint x="1170" y="470" as="targetPoint" />
          </mxGeometry>
        </mxCell>
        <mxCell id="J-ktD6FrpKtYXj1IKdOK-28" value="" style="endArrow=none;html=1;rounded=0;exitX=1;exitY=0.5;exitDx=0;exitDy=0;strokeWidth=1;fillColor=#1ba1e2;strokeColor=#006EAF;" parent="1" source="J-ktD6FrpKtYXj1IKdOK-25" target="J-ktD6FrpKtYXj1IKdOK-24" edge="1">
          <mxGeometry width="50" height="50" relative="1" as="geometry">
            <mxPoint x="1081" y="580" as="sourcePoint" />
            <mxPoint x="1192" y="470" as="targetPoint" />
          </mxGeometry>
        </mxCell>
        <mxCell id="J-ktD6FrpKtYXj1IKdOK-29" value="" style="endArrow=none;html=1;rounded=0;exitX=0.5;exitY=1;exitDx=0;exitDy=0;strokeWidth=1;fillColor=#1ba1e2;strokeColor=#006EAF;" parent="1" source="J-ktD6FrpKtYXj1IKdOK-25" target="J-ktD6FrpKtYXj1IKdOK-24" edge="1">
          <mxGeometry width="50" height="50" relative="1" as="geometry">
            <mxPoint x="1091" y="630" as="sourcePoint" />
            <mxPoint x="1252" y="390" as="targetPoint" />
          </mxGeometry>
        </mxCell>
        <mxCell id="J-ktD6FrpKtYXj1IKdOK-31" value="" style="html=1;verticalLabelPosition=bottom;align=center;labelBackgroundColor=#ffffff;verticalAlign=top;strokeWidth=2;strokeColor=#0080F0;shadow=0;dashed=0;shape=mxgraph.ios7.icons.camera;" parent="1" vertex="1">
          <mxGeometry x="1321" y="440" width="68.97" height="40" as="geometry" />
        </mxCell>
        <mxCell id="J-ktD6FrpKtYXj1IKdOK-32" value="" style="rhombus;whiteSpace=wrap;html=1;strokeColor=#006EAF;fillStyle=zigzag-line;fillColor=#1ba1e2;fontColor=#ffffff;" parent="1" vertex="1">
          <mxGeometry x="1360" y="560" width="160" height="80" as="geometry" />
        </mxCell>
        <mxCell id="J-ktD6FrpKtYXj1IKdOK-33" value="" style="endArrow=none;html=1;rounded=0;exitX=0.5;exitY=0;exitDx=0;exitDy=0;strokeWidth=1;fillColor=#1ba1e2;strokeColor=#006EAF;" parent="1" source="J-ktD6FrpKtYXj1IKdOK-32" target="J-ktD6FrpKtYXj1IKdOK-31" edge="1">
          <mxGeometry width="50" height="50" relative="1" as="geometry">
            <mxPoint x="1781" y="540" as="sourcePoint" />
            <mxPoint x="1583" y="470" as="targetPoint" />
          </mxGeometry>
        </mxCell>
        <mxCell id="J-ktD6FrpKtYXj1IKdOK-34" value="" style="endArrow=none;html=1;rounded=0;exitX=0;exitY=0.5;exitDx=0;exitDy=0;strokeWidth=1;fillColor=#1ba1e2;strokeColor=#006EAF;" parent="1" source="J-ktD6FrpKtYXj1IKdOK-32" target="J-ktD6FrpKtYXj1IKdOK-31" edge="1">
          <mxGeometry width="50" height="50" relative="1" as="geometry">
            <mxPoint x="1481" y="540" as="sourcePoint" />
            <mxPoint x="1570" y="470" as="targetPoint" />
          </mxGeometry>
        </mxCell>
        <mxCell id="J-ktD6FrpKtYXj1IKdOK-35" value="" style="endArrow=none;html=1;rounded=0;exitX=1;exitY=0.5;exitDx=0;exitDy=0;strokeWidth=1;fillColor=#1ba1e2;strokeColor=#006EAF;" parent="1" source="J-ktD6FrpKtYXj1IKdOK-32" target="J-ktD6FrpKtYXj1IKdOK-31" edge="1">
          <mxGeometry width="50" height="50" relative="1" as="geometry">
            <mxPoint x="1481" y="580" as="sourcePoint" />
            <mxPoint x="1592" y="470" as="targetPoint" />
          </mxGeometry>
        </mxCell>
        <mxCell id="J-ktD6FrpKtYXj1IKdOK-36" value="" style="endArrow=none;html=1;rounded=0;exitX=0.5;exitY=1;exitDx=0;exitDy=0;strokeWidth=1;fillColor=#1ba1e2;strokeColor=#006EAF;" parent="1" source="J-ktD6FrpKtYXj1IKdOK-32" target="J-ktD6FrpKtYXj1IKdOK-31" edge="1">
          <mxGeometry width="50" height="50" relative="1" as="geometry">
            <mxPoint x="1491" y="630" as="sourcePoint" />
            <mxPoint x="1652" y="390" as="targetPoint" />
          </mxGeometry>
        </mxCell>
        <mxCell id="J-ktD6FrpKtYXj1IKdOK-37" value="Update&lt;br&gt;Threashold Crossed" style="shape=flexArrow;endArrow=classic;html=1;rounded=0;endWidth=40.8;endSize=9.6;width=30.4;" parent="1" edge="1">
          <mxGeometry width="50" height="50" relative="1" as="geometry">
            <mxPoint x="1131" y="630" as="sourcePoint" />
            <mxPoint x="1271" y="630" as="targetPoint" />
          </mxGeometry>
        </mxCell>
        <mxCell id="J-ktD6FrpKtYXj1IKdOK-46" value="Update Done" style="shape=flexArrow;endArrow=classic;html=1;rounded=0;endWidth=40.8;endSize=9.6;width=30.4;" parent="1" edge="1">
          <mxGeometry width="50" height="50" relative="1" as="geometry">
            <mxPoint x="1400" y="720" as="sourcePoint" />
            <mxPoint x="1400" y="820" as="targetPoint" />
          </mxGeometry>
        </mxCell>
        <mxCell id="J-ktD6FrpKtYXj1IKdOK-57" value="" style="rhombus;whiteSpace=wrap;html=1;fillColor=none;dashed=1;dashPattern=1 1;strokeWidth=3;strokeColor=#9673a6;" parent="1" vertex="1">
          <mxGeometry x="880" y="280" width="240" height="120" as="geometry" />
        </mxCell>
        <mxCell id="J-ktD6FrpKtYXj1IKdOK-9" value="" style="rhombus;whiteSpace=wrap;html=1;strokeColor=#006EAF;fillStyle=zigzag-line;fillColor=#1ba1e2;fontColor=#ffffff;" parent="1" vertex="1">
          <mxGeometry x="920" y="300" width="160" height="80" as="geometry" />
        </mxCell>
        <mxCell id="J-ktD6FrpKtYXj1IKdOK-59" value="" style="rhombus;whiteSpace=wrap;html=1;fillColor=#f0a30a;strokeColor=#BD7000;fillStyle=solid;fontColor=#000000;strokeWidth=1;perimeterSpacing=0;gradientColor=default;gradientDirection=south;" parent="1" vertex="1">
          <mxGeometry x="1240" y="260" width="320" height="160" as="geometry" />
        </mxCell>
        <mxCell id="J-ktD6FrpKtYXj1IKdOK-60" value="" style="rhombus;whiteSpace=wrap;html=1;fillColor=none;dashed=1;dashPattern=1 1;strokeWidth=3;strokeColor=#9673a6;" parent="1" vertex="1">
          <mxGeometry x="1280" y="280" width="240" height="120" as="geometry" />
        </mxCell>
        <mxCell id="J-ktD6FrpKtYXj1IKdOK-17" value="" style="rhombus;whiteSpace=wrap;html=1;strokeColor=#006EAF;fillColor=#1ba1e2;fillStyle=zigzag-line;fontColor=#ffffff;" parent="1" vertex="1">
          <mxGeometry x="1340" y="290" width="160" height="80" as="geometry" />
        </mxCell>
        <mxCell id="J-ktD6FrpKtYXj1IKdOK-14" value="" style="endArrow=none;html=1;rounded=0;exitX=0.5;exitY=1;exitDx=0;exitDy=0;strokeWidth=1;fillColor=#1ba1e2;strokeColor=#006EAF;" parent="1" source="J-ktD6FrpKtYXj1IKdOK-9" target="J-ktD6FrpKtYXj1IKdOK-8" edge="1">
          <mxGeometry width="50" height="50" relative="1" as="geometry">
            <mxPoint x="1090" y="350" as="sourcePoint" />
            <mxPoint x="1251" y="110" as="targetPoint" />
          </mxGeometry>
        </mxCell>
        <mxCell id="J-ktD6FrpKtYXj1IKdOK-21" value="" style="endArrow=none;html=1;rounded=0;exitX=0.5;exitY=1;exitDx=0;exitDy=0;strokeWidth=1;fillColor=#1ba1e2;strokeColor=#006EAF;" parent="1" source="J-ktD6FrpKtYXj1IKdOK-17" target="J-ktD6FrpKtYXj1IKdOK-16" edge="1">
          <mxGeometry width="50" height="50" relative="1" as="geometry">
            <mxPoint x="1490" y="350" as="sourcePoint" />
            <mxPoint x="1651" y="110" as="targetPoint" />
          </mxGeometry>
        </mxCell>
        <mxCell id="J-ktD6FrpKtYXj1IKdOK-68" value="Pre-Loaded Entities" style="text;html=1;strokeColor=#BD7000;fillColor=#f0a30a;align=center;verticalAlign=middle;whiteSpace=wrap;rounded=0;fontColor=#000000;" parent="1" vertex="1">
          <mxGeometry x="1060" y="200" width="100" height="40" as="geometry" />
        </mxCell>
        <mxCell id="J-ktD6FrpKtYXj1IKdOK-69" value="Async Area-Load Threshold" style="text;html=1;strokeColor=#432D57;fillColor=#76608a;align=center;verticalAlign=middle;whiteSpace=wrap;rounded=0;fontColor=#ffffff;" parent="1" vertex="1">
          <mxGeometry x="1200" y="200" width="100" height="40" as="geometry" />
        </mxCell>
        <mxCell id="J-ktD6FrpKtYXj1IKdOK-74" value="" style="endArrow=classic;html=1;rounded=0;entryX=0.211;entryY=0.289;entryDx=0;entryDy=0;entryPerimeter=0;fillColor=#76608a;strokeColor=#432D57;" parent="1" source="J-ktD6FrpKtYXj1IKdOK-69" target="J-ktD6FrpKtYXj1IKdOK-60" edge="1">
          <mxGeometry width="50" height="50" relative="1" as="geometry">
            <mxPoint x="1200" y="470" as="sourcePoint" />
            <mxPoint x="1250" y="420" as="targetPoint" />
          </mxGeometry>
        </mxCell>
        <mxCell id="J-ktD6FrpKtYXj1IKdOK-75" value="" style="endArrow=classic;html=1;rounded=0;entryX=1;entryY=0;entryDx=0;entryDy=0;fillColor=#f0a30a;strokeColor=#BD7000;" parent="1" source="J-ktD6FrpKtYXj1IKdOK-68" target="J-ktD6FrpKtYXj1IKdOK-13" edge="1">
          <mxGeometry width="50" height="50" relative="1" as="geometry">
            <mxPoint x="1235" y="240" as="sourcePoint" />
            <mxPoint x="1341" y="325" as="targetPoint" />
          </mxGeometry>
        </mxCell>
        <mxCell id="J-ktD6FrpKtYXj1IKdOK-78" value="Cullable&lt;br&gt;Entites" style="text;html=1;strokeColor=#6F0000;fillColor=#a20025;align=center;verticalAlign=middle;whiteSpace=wrap;rounded=0;fontColor=#ffffff;" parent="1" vertex="1">
          <mxGeometry x="1080" y="1000" width="99" height="40" as="geometry" />
        </mxCell>
        <mxCell id="J-ktD6FrpKtYXj1IKdOK-79" value="" style="endArrow=classic;html=1;rounded=0;fillColor=#a20025;strokeColor=#6F0000;entryX=0.089;entryY=0.583;entryDx=0;entryDy=0;entryPerimeter=0;" parent="1" source="J-ktD6FrpKtYXj1IKdOK-78" target="J-ktD6FrpKtYXj1IKdOK-99" edge="1">
          <mxGeometry width="50" height="50" relative="1" as="geometry">
            <mxPoint x="745" y="680" as="sourcePoint" />
            <mxPoint x="1070" y="930" as="targetPoint" />
          </mxGeometry>
        </mxCell>
        <mxCell id="J-ktD6FrpKtYXj1IKdOK-80" value="New Pre-loaded Entities" style="text;html=1;strokeColor=#2D7600;fillColor=#60a917;align=center;verticalAlign=middle;whiteSpace=wrap;rounded=0;fontColor=#ffffff;" parent="1" vertex="1">
          <mxGeometry x="1521" y="800" width="99" height="40" as="geometry" />
        </mxCell>
        <mxCell id="J-ktD6FrpKtYXj1IKdOK-81" value="" style="endArrow=classic;html=1;rounded=0;fillColor=#60a917;strokeColor=#2D7600;entryX=1;entryY=0;entryDx=0;entryDy=0;" parent="1" source="J-ktD6FrpKtYXj1IKdOK-80" target="J-ktD6FrpKtYXj1IKdOK-87" edge="1">
          <mxGeometry width="50" height="50" relative="1" as="geometry">
            <mxPoint x="1285" y="640" as="sourcePoint" />
            <mxPoint x="1800" y="890" as="targetPoint" />
          </mxGeometry>
        </mxCell>
        <mxCell id="J-ktD6FrpKtYXj1IKdOK-82" value="Visible Area" style="text;html=1;strokeColor=#006EAF;fillColor=#1ba1e2;align=center;verticalAlign=middle;whiteSpace=wrap;rounded=0;fontColor=#ffffff;" parent="1" vertex="1">
          <mxGeometry x="840" y="120" width="100" height="40" as="geometry" />
        </mxCell>
        <mxCell id="J-ktD6FrpKtYXj1IKdOK-83" value="" style="endArrow=classic;html=1;rounded=0;fillColor=#1ba1e2;strokeColor=#006EAF;" parent="1" source="J-ktD6FrpKtYXj1IKdOK-82" target="J-ktD6FrpKtYXj1IKdOK-9" edge="1">
          <mxGeometry width="50" height="50" relative="1" as="geometry">
            <mxPoint x="457" y="15" as="sourcePoint" />
            <mxPoint x="782" y="265" as="targetPoint" />
          </mxGeometry>
        </mxCell>
        <mxCell id="J-ktD6FrpKtYXj1IKdOK-87" value="" style="rhombus;whiteSpace=wrap;html=1;fillColor=#f0a30a;strokeColor=#BD7000;fillStyle=solid;fontColor=#000000;strokeWidth=1;perimeterSpacing=0;gradientColor=default;gradientDirection=south;" parent="1" vertex="1">
          <mxGeometry x="1280" y="900" width="320" height="160" as="geometry" />
        </mxCell>
        <mxCell id="J-ktD6FrpKtYXj1IKdOK-88" value="" style="rhombus;whiteSpace=wrap;html=1;fillColor=none;dashed=1;dashPattern=1 1;strokeWidth=3;strokeColor=#9673a6;" parent="1" vertex="1">
          <mxGeometry x="1320" y="920" width="240" height="120" as="geometry" />
        </mxCell>
        <mxCell id="J-ktD6FrpKtYXj1IKdOK-89" value="" style="html=1;verticalLabelPosition=bottom;align=center;labelBackgroundColor=#ffffff;verticalAlign=top;strokeWidth=2;strokeColor=#0080F0;shadow=0;dashed=0;shape=mxgraph.ios7.icons.camera;" parent="1" vertex="1">
          <mxGeometry x="1320" y="840" width="68.97" height="40" as="geometry" />
        </mxCell>
        <mxCell id="J-ktD6FrpKtYXj1IKdOK-90" value="" style="rhombus;whiteSpace=wrap;html=1;strokeColor=#006EAF;fillStyle=zigzag-line;fillColor=#1ba1e2;fontColor=#ffffff;" parent="1" vertex="1">
          <mxGeometry x="1360" y="940" width="160" height="80" as="geometry" />
        </mxCell>
        <mxCell id="J-ktD6FrpKtYXj1IKdOK-91" value="" style="endArrow=none;html=1;rounded=0;exitX=0.5;exitY=0;exitDx=0;exitDy=0;strokeWidth=1;fillColor=#1ba1e2;strokeColor=#006EAF;" parent="1" source="J-ktD6FrpKtYXj1IKdOK-90" target="J-ktD6FrpKtYXj1IKdOK-89" edge="1">
          <mxGeometry width="50" height="50" relative="1" as="geometry">
            <mxPoint x="1861" y="880" as="sourcePoint" />
            <mxPoint x="1663" y="810" as="targetPoint" />
          </mxGeometry>
        </mxCell>
        <mxCell id="J-ktD6FrpKtYXj1IKdOK-92" value="" style="endArrow=none;html=1;rounded=0;exitX=0;exitY=0.5;exitDx=0;exitDy=0;strokeWidth=1;fillColor=#1ba1e2;strokeColor=#006EAF;" parent="1" source="J-ktD6FrpKtYXj1IKdOK-90" target="J-ktD6FrpKtYXj1IKdOK-89" edge="1">
          <mxGeometry width="50" height="50" relative="1" as="geometry">
            <mxPoint x="1561" y="880" as="sourcePoint" />
            <mxPoint x="1650" y="810" as="targetPoint" />
          </mxGeometry>
        </mxCell>
        <mxCell id="J-ktD6FrpKtYXj1IKdOK-93" value="" style="endArrow=none;html=1;rounded=0;exitX=1;exitY=0.5;exitDx=0;exitDy=0;strokeWidth=1;fillColor=#1ba1e2;strokeColor=#006EAF;" parent="1" source="J-ktD6FrpKtYXj1IKdOK-90" target="J-ktD6FrpKtYXj1IKdOK-89" edge="1">
          <mxGeometry width="50" height="50" relative="1" as="geometry">
            <mxPoint x="1561" y="920" as="sourcePoint" />
            <mxPoint x="1672" y="810" as="targetPoint" />
          </mxGeometry>
        </mxCell>
        <mxCell id="J-ktD6FrpKtYXj1IKdOK-94" value="" style="endArrow=none;html=1;rounded=0;exitX=0.5;exitY=1;exitDx=0;exitDy=0;strokeWidth=1;fillColor=#1ba1e2;strokeColor=#006EAF;" parent="1" source="J-ktD6FrpKtYXj1IKdOK-90" target="J-ktD6FrpKtYXj1IKdOK-89" edge="1">
          <mxGeometry width="50" height="50" relative="1" as="geometry">
            <mxPoint x="1571" y="970" as="sourcePoint" />
            <mxPoint x="1732" y="730" as="targetPoint" />
          </mxGeometry>
        </mxCell>
        <mxCell id="J-ktD6FrpKtYXj1IKdOK-96" value="Async Loading Triggered" style="text;html=1;strokeColor=#432D57;fillColor=#76608a;align=center;verticalAlign=middle;whiteSpace=wrap;rounded=0;fontColor=#ffffff;" parent="1" vertex="1">
          <mxGeometry x="1520" y="480" width="100" height="40" as="geometry" />
        </mxCell>
        <mxCell id="J-ktD6FrpKtYXj1IKdOK-97" value="" style="endArrow=classic;html=1;rounded=0;entryX=0.913;entryY=0.417;entryDx=0;entryDy=0;entryPerimeter=0;fillColor=#76608a;strokeColor=#432D57;" parent="1" source="J-ktD6FrpKtYXj1IKdOK-96" target="J-ktD6FrpKtYXj1IKdOK-62" edge="1">
          <mxGeometry width="50" height="50" relative="1" as="geometry">
            <mxPoint x="1480" y="710" as="sourcePoint" />
            <mxPoint x="1611" y="555" as="targetPoint" />
          </mxGeometry>
        </mxCell>
        <mxCell id="Nqplv-zBM7Ei44Qv5p5h-1" value="&lt;h1&gt;Rendering Goals&lt;/h1&gt;&lt;p&gt;&lt;/p&gt;&lt;ul&gt;&lt;li&gt;Seamless&lt;/li&gt;&lt;li&gt;Non-Blocking (Allow viewing blank &amp;amp; loading regions)&lt;/li&gt;&lt;li&gt;Minimise Memory Usage&lt;/li&gt;&lt;li&gt;Minimise Database Queries&lt;/li&gt;&lt;li&gt;Minimise Update Ferquency&lt;/li&gt;&lt;/ul&gt;&lt;div&gt;&lt;br&gt;&lt;/div&gt;&lt;p&gt;&lt;/p&gt;" style="text;html=1;strokeColor=none;fillColor=none;spacing=5;spacingTop=-20;whiteSpace=wrap;overflow=hidden;rounded=0;" vertex="1" parent="1">
          <mxGeometry x="40" y="40" width="440" height="160" as="geometry" />
        </mxCell>
        <mxCell id="kaKaF3czVIxU73aV-mTX-1" value="&lt;h1&gt;Fast &amp;amp; No Latency Queriable and Modifiable Data Structure to Hold Rendered Items&lt;/h1&gt;&lt;p&gt;Entities are added and removed on bulk (by tools or by cullign and loading new regions)&lt;/p&gt;&lt;p&gt;Entities nearest to a point are queried and entities within&amp;nbsp; radius from a point are queried.&lt;/p&gt;&lt;p&gt;&lt;br&gt;&lt;/p&gt;&lt;a href=&quot;https://courses.cs.vt.edu/cs3114/Fall08/Quadtree.pdf&quot;&gt;Quadtree.pdf (vt.edu)&lt;/a&gt;&lt;br&gt;&lt;br&gt;&lt;a href=&quot;https://stackoverflow.com/questions/6109833/efficient-data-structure-for-objects-in-2d-space&quot;&gt;algorithm - Efficient data structure for objects in 2D space - Stack Overflow&lt;/a&gt;&lt;br&gt;&lt;br&gt;&lt;a href=&quot;https://stackoverflow.com/questions/55484525/range-search-algorithm-for-querying-shapes-in-2d-plane-that-are-in-the-given-reg&quot;&gt;data structures - range search algorithm for querying shapes in 2D plane that are in the given region - Stack Overflow&lt;/a&gt;&lt;br&gt;&lt;br&gt;&lt;a href=&quot;http://blog.notdot.net/2009/11/Damn-Cool-Algorithms-Spatial-indexing-with-Quadtrees-and-Hilbert-Curves&quot;&gt;Damn Cool Algorithms: Spatial indexing with Quadtrees and Hilbert Curves - Nick&#39;s Blog (notdot.net)&lt;/a&gt;&lt;br&gt;&lt;br&gt;Point Quadtree&lt;br&gt;&lt;br&gt;Dynamic AABB trees&lt;br&gt;&lt;br&gt;" style="text;html=1;strokeColor=none;fillColor=none;spacing=5;spacingTop=-20;whiteSpace=wrap;overflow=hidden;rounded=0;" vertex="1" parent="1">
          <mxGeometry x="40" y="1200" width="720" height="560" as="geometry" />
        </mxCell>
      </root>
    </mxGraphModel>
  </diagram>
  <diagram id="WcvxGhMSbeT5C9dsg1Md" name="Auto-Migrations">
    <mxGraphModel dx="1434" dy="854" grid="1" gridSize="10" guides="1" tooltips="1" connect="1" arrows="1" fold="1" page="1" pageScale="1" pageWidth="827" pageHeight="1169" math="0" shadow="0">
      <root>
        <mxCell id="0" />
        <mxCell id="1" parent="0" />
        <mxCell id="OkJO9dyIqZ6ocuMHuX5k-1" value="Database" style="shape=cylinder3;whiteSpace=wrap;html=1;boundedLbl=1;backgroundOutline=1;size=15;" vertex="1" parent="1">
          <mxGeometry x="320" y="480" width="80" height="80" as="geometry" />
        </mxCell>
        <mxCell id="if-Y_HrIineVpSTiPr5J-4" style="edgeStyle=orthogonalEdgeStyle;rounded=0;orthogonalLoop=1;jettySize=auto;html=1;" edge="1" parent="1" source="if-Y_HrIineVpSTiPr5J-1" target="if-Y_HrIineVpSTiPr5J-7">
          <mxGeometry relative="1" as="geometry">
            <mxPoint x="120" y="240" as="targetPoint" />
          </mxGeometry>
        </mxCell>
        <mxCell id="if-Y_HrIineVpSTiPr5J-1" value="App Startup&lt;br&gt;Register Services &amp;amp; Data&lt;br&gt;Build ServiceProvider" style="rounded=0;whiteSpace=wrap;html=1;" vertex="1" parent="1">
          <mxGeometry x="40" y="240" width="160" height="80" as="geometry" />
        </mxCell>
        <mxCell id="if-Y_HrIineVpSTiPr5J-6" value="Proceed With Startup&lt;br&gt;App.Run()" style="rounded=0;whiteSpace=wrap;html=1;" vertex="1" parent="1">
          <mxGeometry x="40" y="600" width="160" height="80" as="geometry" />
        </mxCell>
        <mxCell id="if-Y_HrIineVpSTiPr5J-13" style="edgeStyle=orthogonalEdgeStyle;rounded=0;orthogonalLoop=1;jettySize=auto;html=1;" edge="1" parent="1" source="if-Y_HrIineVpSTiPr5J-7" target="if-Y_HrIineVpSTiPr5J-12">
          <mxGeometry relative="1" as="geometry" />
        </mxCell>
        <mxCell id="if-Y_HrIineVpSTiPr5J-7" value="Halt Startup" style="rounded=0;whiteSpace=wrap;html=1;" vertex="1" parent="1">
          <mxGeometry x="40" y="360" width="160" height="80" as="geometry" />
        </mxCell>
        <mxCell id="if-Y_HrIineVpSTiPr5J-14" style="edgeStyle=orthogonalEdgeStyle;rounded=0;orthogonalLoop=1;jettySize=auto;html=1;" edge="1" parent="1" source="if-Y_HrIineVpSTiPr5J-12" target="if-Y_HrIineVpSTiPr5J-6">
          <mxGeometry relative="1" as="geometry" />
        </mxCell>
        <mxCell id="if-Y_HrIineVpSTiPr5J-12" value="Execute Migrations&lt;br&gt;&lt;pre class=&quot;lang-cs s-code-block&quot;&gt;&lt;code class=&quot;hljs language-csharp&quot;&gt;context.Database&lt;br/&gt;.Migrate();&lt;/code&gt;&lt;/pre&gt;" style="rounded=0;whiteSpace=wrap;html=1;" vertex="1" parent="1">
          <mxGeometry x="40" y="480" width="160" height="80" as="geometry" />
        </mxCell>
        <mxCell id="if-Y_HrIineVpSTiPr5J-19" value="" style="shape=flexArrow;endArrow=classic;startArrow=classic;html=1;rounded=0;" edge="1" parent="1" source="if-Y_HrIineVpSTiPr5J-12" target="OkJO9dyIqZ6ocuMHuX5k-1">
          <mxGeometry width="100" height="100" relative="1" as="geometry">
            <mxPoint x="210" y="290" as="sourcePoint" />
            <mxPoint x="410" y="290" as="targetPoint" />
          </mxGeometry>
        </mxCell>
        <mxCell id="HdS2IG1aq7lAjcHnuO76-1" value="&lt;h1&gt;Migration Goals&lt;/h1&gt;&lt;p&gt;&lt;/p&gt;&lt;ul&gt;&lt;li&gt;Automattic&lt;/li&gt;&lt;li&gt;Transparent To User&lt;/li&gt;&lt;li&gt;No Dataloss&lt;/li&gt;&lt;/ul&gt;&lt;div&gt;&lt;br&gt;&lt;/div&gt;&lt;p&gt;&lt;/p&gt;" style="text;html=1;strokeColor=none;fillColor=none;spacing=5;spacingTop=-20;whiteSpace=wrap;overflow=hidden;rounded=0;" vertex="1" parent="1">
          <mxGeometry x="40" y="40" width="440" height="160" as="geometry" />
        </mxCell>
      </root>
    </mxGraphModel>
  </diagram>
</mxfile>
